<svg width="594" height="775" viewBox="0 0 594 775" fill="none" xmlns="http://www.w3.org/2000/svg">
<g clip-path="url(#clip0_554_247)">
<path d="M299.452 103.584L297.508 102.612V90.9435C297.508 89.4849 296.051 86.5678 296.051 86.5678C296.051 86.5678 293.621 80.7337 293.621 79.2751C293.621 77.8166 294.593 72.9548 294.593 72.9548L295.565 65.1759L299.452 59.3417V49.6181L297.023 49.1319H293.135L290.22 45.2425L291.192 42.3254V37.4636L290.706 34.5465L285.847 30.657L285.361 25.309V20.9334L283.903 17.5302L280.988 17.044L276.615 18.5025L275.157 20.4472L272.242 22.8781L269.813 23.8505L266.897 22.392L263.496 20.4472L263.01 16.5578V13.1545L262.524 7.80653L263.01 4.88945L260.581 2.94472L257.665 1L252.641 6.34799L242.603 12.503L237.744 18.9887C237.744 18.9887 228.677 25.1437 226.733 26.1161C224.79 27.0885 221.223 29.6847 220.251 30.9779C219.28 32.2712 213.449 36.8121 213.449 36.8121C213.449 36.8121 206.967 43.6186 206.646 44.591C206.326 45.5633 201.136 51.0766 201.136 51.0766L199.844 60.1488L196.929 64.3591L195.306 69.5418L196.277 76.3483L193.683 80.2378C193.683 80.2378 188.503 82.5034 187.531 82.5034C186.56 82.5034 182.352 82.1825 182.352 82.1825L179.116 86.0719C179.116 86.0719 171.021 91.2546 170.049 92.227C169.077 93.1993 162.275 98.382 160.982 99.3544C159.69 100.327 157.095 105.189 157.095 105.189L152.887 118.15C152.887 118.15 151.264 125.929 151.264 126.901C151.264 127.874 148.5 132.028 148.5 133L150.778 135.166L157.095 140.028C157.095 140.028 159.5 141.041 159.5 142.5C159.5 143.959 160.01 148 160.01 148L162 152L168.756 153.155L178 155.5L179 159L184 162.879L188.5 162.393L193.5 159.476L196 155L199.5 152L204.5 150.5L211.029 153.641C211.029 153.641 212.542 155.5 214 155.5C215.458 155.5 219.5 156.5 219.5 156.5L220.883 159L219 162.879L215.5 166.768L212 169L209.5 171.5L207.5 178.437L201.943 183L201 185C203.536 186.303 205.5 187 205.5 187L212 190.105L220 191L220.5 192.5L225.12 190.105L227.064 186.215L228.035 181.84C228.035 181.84 228.521 178.923 229.979 178.923C231.437 178.923 234.352 178.437 234.352 178.437L235.324 175.519C235.324 175.519 237.267 171.144 237.267 169.685C237.267 168.227 238.725 163.851 238.725 163.851L242.126 162.393L246.013 164.824L250.872 166.768L257.189 167.673V165.31L258.647 161.42L260.104 159.476H264.477L267.393 162.879L270.308 163.365L275.653 159.476L279.054 155.586L280.512 153.641L279.054 149.266V144.89L278.568 142.459L277.597 139.542L278.082 135.166L277.597 131.277H273.224L269.336 129.818L267.393 126.901L267.879 119.123L270.794 117.178L274.195 116.205L276.139 112.316L279.054 113.288L279.54 118.636L280.998 121.067L284.399 119.123L287.314 118.636L290.716 117.664L295.089 118.636L296.546 114.261L300.919 109.399V106.482L299.462 103.565L299.452 103.584Z" fill="#F9F9F9" stroke="#DDDDDD" stroke-linejoin="round"/>
<path d="M222.991 91.666V100.083H221.582V97.2393H218.846C218.3 97.855 217.488 98.2231 216.567 98.2295C214.834 98.2231 213.533 96.9917 213.533 95.2969C213.533 93.583 214.834 92.3579 216.567 92.3516C217.481 92.3579 218.294 92.7197 218.84 93.3291H221.582V91.666H222.991ZM214.879 95.2969C214.879 96.3188 215.583 96.9727 216.567 96.9727C217.507 96.9727 218.224 96.3188 218.23 95.2969C218.224 94.2686 217.507 93.6084 216.567 93.6084C215.583 93.6084 214.879 94.2686 214.879 95.2969ZM215.463 102.901V99.2197H216.872V101.759H223.283V102.901H215.463ZM219.462 94.4717C219.532 94.7319 219.576 95.0049 219.576 95.2969C219.576 95.5762 219.538 95.8428 219.468 96.0967H221.582V94.4717H219.462ZM228.742 94.3701C228.736 95.7349 229.694 97.0615 231.51 97.6201L230.824 98.7246C229.523 98.3374 228.577 97.5059 228.057 96.4521C227.549 97.5884 226.603 98.4834 225.264 98.915L224.578 97.8105C226.387 97.2456 227.333 95.8428 227.333 94.3701V94.1924H224.934V93.0752H227.333V91.7295H228.755V93.0752H231.142V94.1924H228.742V94.3701ZM226.698 102.901V99.4482H228.107V101.759H234.519V102.901H226.698ZM230.761 96.2109V95.0811H232.817V91.666H234.227V100.185H232.817V96.2109H230.761Z" fill="#333333"/>
<path d="M245.586 164.843L241.699 162.412L238.298 163.871C238.298 163.871 236.84 168.246 236.84 169.705C236.84 171.163 234.897 175.539 234.897 175.539L233.925 178.456C233.925 178.456 231.01 178.942 229.552 178.942C228.094 178.942 227.608 181.859 227.608 181.859L226.637 186.235L224.693 190.124L220.456 192.351L220.806 195.472C220.806 195.472 218.862 200.82 218.862 202.279C218.862 203.737 221.292 208.113 221.292 208.113L226.637 209.085C226.637 209.085 231.496 210.058 231.981 211.516C232.467 212.975 235.383 213.461 235.383 215.892C235.383 218.323 236.354 222.212 236.354 222.212L239.756 224.643L245.101 225.616L251.417 227.56L255.79 226.588L257.248 229.505L259.843 231.732L268.423 226.102L274.74 223.185L280.571 217.837L282.514 212.975L280.085 208.599L278.141 204.224L276.684 199.362L271.825 196.931L268.423 194.014C268.423 194.014 265.022 191.097 262.593 188.18L260.163 186.721L257.248 182.345L259.677 178.942L257.734 171.163L256.762 168.732V167.692L250.445 166.788L245.586 164.843Z" fill="#F9F9F9" stroke="#DDDDDD" stroke-linejoin="round"/>
<path d="M240.854 200.15V201.28H230.381V200.15H234.926V199.059H231.663V195.174H239.585V196.278H233.072V197.941H239.648V199.059H236.31V200.15H240.854ZM231.6 204.035C231.6 202.689 233.104 201.934 235.599 201.94C238.074 201.934 239.566 202.689 239.572 204.035C239.566 205.368 238.074 206.124 235.599 206.13C233.104 206.124 231.6 205.368 231.6 204.035ZM233.034 204.035C233.028 204.702 233.929 205.044 235.599 205.038C237.243 205.044 238.15 204.702 238.163 204.035C238.15 203.375 237.243 203.02 235.599 203.02C233.929 203.02 233.028 203.375 233.034 204.035ZM250.833 198.805V199.922H242.975V195.288H250.706V196.418H244.422V198.805H250.833ZM241.604 202.334V201.191H252.09V202.334H247.52V206.104H246.123V202.334H241.604ZM256.978 197.37C256.971 198.735 257.93 200.062 259.745 200.62L259.06 201.725C257.758 201.337 256.812 200.506 256.292 199.452C255.784 200.588 254.838 201.483 253.499 201.915L252.813 200.811C254.623 200.246 255.568 198.843 255.568 197.37V197.192H253.169V196.075H255.568V194.729H256.99V196.075H259.377V197.192H256.978V197.37ZM254.934 205.901V202.448H256.343V204.759H262.754V205.901H254.934ZM258.996 199.211V198.081H261.053V194.666H262.462V203.185H261.053V199.211H258.996Z" fill="#333333"/>
<path d="M411.514 118.121L410.542 111.8V105.966C410.542 105.966 409.085 99.1595 408.113 97.701C407.141 96.2425 405.683 93.3254 405.683 93.3254L402.282 91.8668L399.367 95.2701L394.994 94.7839C394.994 94.7839 392.564 92.353 392.564 90.8945C392.564 89.4359 390.621 88.9497 390.621 88.9497L382.846 88.4636C382.846 88.4636 379.931 88.9497 378.473 89.4359C377.016 89.9221 375.558 92.8392 375.558 92.8392L373.614 94.7839L368.755 96.7286L365.354 98.1872L362.439 101.59L360.009 102.077L357.58 99.1595L355.15 93.3254L352.721 89.9221L349.32 87.9774L345.433 89.9221L341.545 89.4359L339.602 87.005L336.687 82.6294L337.172 80.6847L341.06 75.8229V71.9334L340.574 67.0716L341.545 62.2098L344.461 59.7789V54.4309L340.574 52H335.229C333.771 52 332.313 52.9724 332.313 52.9724L330.37 55.4033L328.426 60.2651L325.025 63.1822L321.624 65.6131L319.194 68.044L317.251 72.9058L312.878 73.392L308.991 75.8229L306.075 70.9611L304.132 69.0163L301.702 66.0992C301.702 66.0992 299.273 63.1822 299.273 61.7236V59.7789L295.386 65.6131L294.414 73.392C294.414 73.392 293.442 78.2538 293.442 79.7123C293.442 81.1709 295.871 87.005 295.871 87.005C295.871 87.005 297.329 89.9221 297.329 91.3807V103.049L299.273 104.021L300.73 106.938V109.856L296.357 114.717L294.5 118.5L290.5 117.5L287 118.5L284.5 119.093L281 121L279.5 119L278.865 113.5L276 112.5L274.006 116.662L270.605 117.634L267.69 119.579L267.204 127.358L269.147 130.275L273.034 131.734H277.408L277.893 135.623L277.408 139.999L278.379 142.916L278.865 145.347V149.722L280.323 154.098L278.865 156.043L275 160L270 163.5L267.5 163L264.5 159.5H260L258.458 161.877L257 165.766V169.17L257.972 171.601L259.915 179.379L257.486 182.783L260.401 187.158L262.831 188.617C265.26 191.534 268.661 194.451 268.661 194.451L272.063 197.368L276.922 199.799L278.379 204.661L280.323 209.036L282.5 213L280.5 218L274.5 223.5L268 226L260 231.5L260.887 232.859L262.831 237.235L265.26 241.124L266.232 249.389V266.892L261.878 276.703C261.966 277.17 262.491 279.581 263.803 280.019C265.26 280.505 268.176 282.936 268.176 282.936L270.119 285.853L275.464 286.339L277.408 288.77L280.323 292.66L287.611 292.173L292.956 291.201L294.9 285.853L301.702 284.394L306.075 286.339L309.962 288.284L313.364 291.201L318.708 288.77L322.596 285.367L326.483 283.908C326.483 283.908 329.884 283.422 330.37 281.964C330.856 280.505 333.771 277.588 333.771 277.588L334.704 277.919C336.065 272.075 337.338 266.338 337.338 265.433C337.338 263.489 338.63 255.71 338.63 255.71L337.338 249.224L340.574 242.738L339.281 240.142L338.63 233.657L342.517 226.529L345.112 225.878L348.348 227.822L353.528 226.529L356.764 223.291L357.415 218.109L359.358 212.926V198.02L363.245 195.423L367.784 196.075L371.671 197.368L376.209 194.13L381.389 188.296L384.625 183.755L381.389 177.269L382.04 172.087L384.634 166.253L386.578 161.712L390.465 159.767L395.645 157.171L398.881 152.63L400.173 147.447L402.117 142.906L403.409 139.017V135.779L406.004 131.238L409.891 128L412.34 124.324L411.514 118.111V118.121Z" fill="#F9F9F9" stroke="#DDDDDD" stroke-linejoin="round"/>
<path d="M317.867 175.616V176.797H307.381V175.616H311.888V173.356H308.282V172.239H309.895V168.812H308.244V167.669H316.953V168.812H315.277V172.239H316.915V173.356H313.284V175.616H317.867ZM311.304 172.239H313.881V168.812H311.304V172.239ZM322.742 169.37C322.736 170.735 323.694 172.062 325.51 172.62L324.824 173.725C323.523 173.337 322.577 172.506 322.057 171.452C321.549 172.588 320.603 173.483 319.264 173.915L318.578 172.811C320.387 172.246 321.333 170.843 321.333 169.37V169.192H318.934V168.075H321.333V166.729H322.755V168.075H325.142V169.192H322.742V169.37ZM320.698 177.901V174.448H322.107V176.759H328.519V177.901H320.698ZM324.761 171.211V170.081H326.817V166.666H328.227V175.185H326.817V171.211H324.761Z" fill="#333333"/>
<path d="M487.075 194.986L488.533 190.611L486.589 187.694L484.16 184.776L482.702 181.373L480.759 176.998L468.125 175.053L463.266 174.08L458.893 173.108L456.464 166.788V159.981L454.034 155.119L451.119 153.175L445.774 152.688C445.774 152.688 440.429 153.661 438.972 153.661C437.514 153.661 434.113 153.175 434.113 153.175L430.226 150.744L423.909 149.285L420.994 145.882L417.107 140.048L416.135 133.241L413.219 129.838L412.248 124.976L412.102 123.897L409.653 127.572L405.766 130.81L403.171 135.351V138.589L401.879 142.479L399.935 147.02L398.643 152.202L395.407 156.743L390.227 159.339L386.34 161.284L384.396 165.825L381.802 171.659L381.15 176.842L384.387 183.328L381.15 187.869L375.971 193.703L371.433 196.941L367.545 195.647L363.007 194.996L359.12 197.592V212.498L357.176 217.681L356.525 222.864L353.289 226.102L348.11 227.395L344.874 225.45L342.279 226.102L338.392 233.229L339.043 239.715L340.335 242.311L337.099 248.797L338.392 255.282C338.392 255.282 337.099 263.061 337.099 265.006C337.099 265.92 335.826 271.647 334.466 277.491L340.335 279.591L344.223 280.564L351.025 282.022C351.025 282.022 355.884 282.509 357.828 285.426C359.771 288.343 364.144 294.663 364.144 294.663C364.144 294.663 363.172 298.066 365.116 301.47C367.06 304.873 371.433 308.276 371.433 308.276V313.624C371.433 313.624 372.404 315.083 372.89 316.541C373.376 318 377.263 323.348 377.263 323.348L380.179 332.099L381.15 340.364L382.122 345.712V347.637L388.925 349.115L395.241 347.657L397.185 344.74L403.987 339.878L408.361 340.85L410.304 342.309L410.79 347.171L411.762 351.546L416.135 354.463L417.592 357.38L421.966 362.728L424.881 368.563V376.341L425.853 383.148L430.226 389.468L437.028 391.413L442.859 388.01C442.859 388.01 448.69 387.037 450.147 386.551C451.605 386.065 457.922 386.551 457.922 386.551L463.266 385.579L465.21 379.745L466.668 374.397L468.125 370.021L464.724 362.242L464.326 357.867H459.865L457.922 355.436L454.52 351.546L456.95 348.143L461.323 344.74L460.837 341.823L460.351 336.961L460.837 331.127L460.351 321.403L463.266 317.027C463.266 317.027 464.238 313.138 464.238 311.679V308.762L460.837 305.845L457.922 308.762L453.549 309.735L451.605 307.79H448.69L445.288 308.762L441.401 305.359L444.317 301.47L450.147 297.58C450.147 297.58 452.091 295.149 452.577 293.691C453.063 292.232 456.464 289.315 456.464 289.315L455.492 284.939L454.034 282.509C454.034 282.509 451.119 276.674 451.119 275.216C451.119 273.757 448.204 272.299 448.204 272.299V265.492L453.063 261.603L453.549 257.713L451.605 252.851L450.147 249.448L453.063 243.614C453.063 243.614 458.893 239.238 460.837 238.752C462.781 238.266 465.696 235.835 465.696 235.835L467.639 234.863L470.069 230.487L472.013 227.084L473.956 226.598L477.357 226.112L482.216 225.139L483.188 220.764L484.16 214.929L488.047 207.637C488.047 207.637 487.561 202.775 487.561 201.316C487.561 199.858 486.589 198.885 487.075 194.996V194.986Z" fill="#F9F9F9" stroke="#DDDDDD" stroke-linejoin="round"/>
<path d="M398.369 248.653V253.135H400.07V254.315H398.369V260.104H396.96V248.653H398.369ZM389.317 256.969C392.11 255.572 393.621 253.63 393.9 251.015H389.939V249.847H395.335C395.329 253.217 393.932 256.182 390.117 258.061L389.317 256.969ZM407.027 249.453V250.596H406.012V253.852C406.431 253.82 406.85 253.782 407.243 253.731V252.703H408.817V251.713H407.243V250.583H408.817V248.653H410.227V255.687H408.817V253.833H407.275L407.332 254.772C405.142 255.134 402.609 255.172 400.781 255.179L400.629 254.011C401.029 254.011 401.467 254.011 401.924 254.004V250.596H400.921V249.453H407.027ZM402.444 258.01C402.432 256.658 403.911 255.89 406.342 255.89C408.792 255.89 410.258 256.658 410.265 258.01C410.258 259.33 408.792 260.117 406.342 260.117C403.911 260.117 402.432 259.33 402.444 258.01ZM403.295 253.985C403.739 253.973 404.196 253.954 404.653 253.935V250.596H403.295V253.985ZM403.841 258.01C403.834 258.676 404.736 259.025 406.342 259.025C407.954 259.025 408.855 258.676 408.855 258.01C408.855 257.331 407.954 256.969 406.342 256.969C404.736 256.969 403.834 257.331 403.841 258.01Z" fill="#333333"/>
<path d="M185.5 283V279.5L185 275.5L184.1 272.855L182.157 270.91L179 270H175L173 269L172 267C172 267 172.704 264.277 173 262.5C173.312 260.627 173.5 257.5 173.5 257.5L174 253.5L174.5 250.5L175 247L176 243L179 240.5L183 243L186.391 240.281L186.5 237.5C186.5 235.069 187 233.5 187 233.5L190 224.5L190.5 219L191 213.5L192.5 207.5L193 199.5L195 199L198 197.5L198.5 195.5C198.986 194.041 199 191 199 191L200 188.5L202.078 182.911L207.423 178.536L209.853 171.243L212.282 168.812L215.683 166.867L219.085 162.978L221.028 159.088L219.571 156.658C219.571 156.658 215.683 155.685 214.226 155.685C212.768 155.685 210.339 153.254 210.339 153.254L204.508 150.337L199.649 151.796L196.248 154.713L193.818 159.088L187.987 162.492L184.1 162.978L178.755 159.088L178.27 155.685L168.066 152.768L161.749 151.796L159.806 148.392C159.806 148.392 159.32 144.017 159.32 142.558C159.32 141.1 156.404 139.641 156.404 139.641L150.088 134.779L148.309 133C148.309 133.972 140.856 139.807 140.856 139.807L131.459 146.292L118.174 157.961L96.1439 174.491L92.5774 176.435C92.5774 176.435 87.7185 175.784 85.4542 174.812C83.19 173.839 81.2464 172.546 81.2464 172.546L77.3593 168.336L74.1232 168.987L70.8871 174.17L68.6229 182.921L69.5947 187.783L70.5665 193.617V214.037L70.2458 221.495L70.5665 228.953C70.5665 228.953 68.9436 237.704 68.9436 238.676C68.9436 239.649 68.2925 245.804 68.6229 248.4C68.9533 250.996 71.5382 256.5 71.5382 256.5L71.8589 262.985L71.5382 269.471L68.9436 272.709L67 277.25L70.8871 282.763L74.7743 286.653L76.3972 289.249L75.1047 292.166L73.4818 297.028L74.7743 302.21L77.0386 305.779L78.0103 309.989L77.3593 317.768L74.7646 321.337L73.1223 327.929L80.1094 323.933L85.9401 321.016L91.7708 319.071L99.5451 317.613H106.348L114.608 315.668L116.066 313.723L119.467 308.861L123.354 304.486L124.326 298.165L128.213 297.193L129.671 300.11L132.586 303.027L134.044 304.972L137.445 304.486H144.247L147.649 301.569L151.536 299.624L155.423 301.569L159.31 304.972L163.683 306.43L166.113 304.486L170.971 302.055L172.429 298.652L174.373 294.276L176.316 293.79L181 292L182 292.5L184 288L185.5 283.5V283Z" fill="#F9F9F9" stroke="#DDDDDD" stroke-linejoin="round"/>
<path d="M121.932 226.771V227.926H120.827V233.086C121.348 233.048 121.862 233.004 122.351 232.94L122.414 233.956C120.046 234.369 117.38 234.413 115.394 234.413L115.229 233.258C115.66 233.258 116.124 233.251 116.612 233.251V227.926H115.521V226.771H121.932ZM117.983 233.226C118.472 233.213 118.967 233.194 119.469 233.169V227.926H117.983V233.226ZM122.96 237.13V225.653H124.369V230.097H126.134V231.252H124.369V237.13H122.96ZM137.077 232.052V233.194H132.52V237.117H131.123V233.194H126.616V232.052H137.077ZM127.162 230.173C129.416 229.887 130.926 228.675 131.028 227.418H127.581V226.301H136.112V227.418H132.666C132.761 228.675 134.259 229.887 136.531 230.173L136.023 231.277C134.068 230.998 132.545 230.103 131.847 228.865C131.142 230.103 129.631 230.998 127.695 231.277L127.162 230.173Z" fill="#333333"/>
<path d="M265.994 257.217V248.952L265.022 240.687L262.593 236.798L260.649 232.422L257.248 229.505L255.79 226.588L251.417 227.56L245.1 225.616L239.756 224.643L236.354 222.212C236.354 222.212 235.383 218.323 235.383 215.892C235.383 213.461 232.467 212.975 231.981 211.516C231.495 210.058 226.636 209.085 226.636 209.085L221.292 208.113C221.292 208.113 218.862 203.737 218.862 202.279C218.862 200.82 220.806 195.472 220.806 195.472L220.32 191.097L212.06 190.124L206.715 187.694C206.715 187.694 204.052 186.449 201.516 185.146L199.912 188.666L198.94 191.097C198.94 191.097 198.94 194.5 198.455 195.959L197.969 197.417L195.053 198.876L193.11 199.848L192.624 207.627L190.68 213.947L190.194 219.781V224.157L186.793 233.881C186.793 233.881 186.307 235.339 186.307 237.77V240.201L182.906 243.118L179.019 240.687L176.104 243.118L175.132 247.008L174.646 250.411L174.16 252.842L173.188 257.704V262.565L171.73 266.941L173.188 269.372L176.104 270.344H179.505L182.42 271.317L184.364 273.261L184.85 276.178L185.335 280.068V283.471L183.878 287.847L181.788 292.563L183.392 294.167L182.42 301.46L179.991 307.294V317.018L179.019 321.879L176.589 325.283L174.646 330.145L175.132 335.493L176.589 339.382L183.392 338.41L188.737 335.493L190.194 330.145L192.138 327.714L195.539 326.255L200.884 326.741L204.285 329.658L209.144 333.062L212.254 335.395C212.516 334.87 212.798 334.384 213.031 334.034C213.683 333.062 214.324 333.062 215.296 332.089C216.267 331.117 218.532 328.2 218.532 328.2L221.447 325.934H222.331L220.806 320.421L219.348 308.753L216.433 302.432L214.003 293.195L214.975 287.847L217.404 284.444L221.777 283.957L225.179 285.416L228.094 282.985L232.953 284.444L239.27 287.361L244.614 285.902L249.473 281.526L257.248 277.637L261.621 276.178C261.621 276.178 261.621 276.217 261.64 276.266L265.994 266.455V257.217Z" fill="#F9F9F9" stroke="#DDDDDD" stroke-linejoin="round"/>
<path d="M216.994 249.189V250.345H215.433V251.652H216.994V252.82H215.433V254.395H214.023V247.653H215.433V249.189H216.994ZM206.508 251.056C206.501 249.437 207.834 248.301 209.605 248.313C211.37 248.301 212.69 249.437 212.703 251.056C212.69 252.668 211.37 253.804 209.605 253.811C207.834 253.804 206.501 252.668 206.508 251.056ZM207.815 256.896C207.815 255.493 209.326 254.667 211.7 254.661C214.055 254.667 215.541 255.493 215.547 256.896C215.541 258.286 214.055 259.117 211.7 259.117C209.326 259.117 207.815 258.286 207.815 256.896ZM207.892 251.056C207.885 252.008 208.615 252.611 209.605 252.617C210.583 252.611 211.313 252.008 211.319 251.056C211.313 250.11 210.583 249.488 209.605 249.494C208.615 249.488 207.885 250.11 207.892 251.056ZM209.225 256.896C209.225 257.619 210.126 257.987 211.7 257.987C213.268 257.987 214.15 257.619 214.15 256.896C214.15 256.178 213.268 255.791 211.7 255.791C210.126 255.791 209.225 256.178 209.225 256.896ZM228.077 254.052V255.194H223.52V259.117H222.123V255.194H217.616V254.052H228.077ZM218.162 252.173C220.416 251.887 221.926 250.675 222.028 249.418H218.581V248.301H227.112V249.418H223.666C223.761 250.675 225.259 251.887 227.531 252.173L227.023 253.277C225.068 252.998 223.545 252.103 222.847 250.865C222.142 252.103 220.631 252.998 218.695 253.277L218.162 252.173Z" fill="#333333"/>
<path d="M275.226 285.902L269.881 285.416L267.937 282.499C267.937 282.499 265.022 280.068 263.564 279.582C262.106 279.096 261.62 276.178 261.62 276.178L257.247 277.637L249.473 281.526L244.614 285.902L239.269 287.361L232.953 284.444L228.094 282.985L225.178 285.416L221.777 283.957L217.404 284.444L214.975 287.847L214.003 293.195L216.432 302.432L219.348 308.753L220.805 320.421L222.331 325.934H225.664L228.58 327.879L230.523 328.53L235.062 328.851L241.213 329.503L244.779 328.851L247.695 327.227L249.191 327.062L251.426 323.338L255.314 317.99L260.173 316.045L266.003 309.725L268.919 304.863L269.89 298.057L274.263 293.195L280.094 292.222L277.179 288.333L275.235 285.902H275.226Z" fill="#F9F9F9" stroke="#DDDDDD" stroke-linejoin="round"/>
<path d="M230.101 298.453C231.922 298.447 233.249 299.596 233.262 301.221C233.249 302.852 231.922 303.995 230.101 304.001C228.298 303.995 226.946 302.852 226.952 301.221C226.946 299.596 228.298 298.447 230.101 298.453ZM226.432 305.588C228.501 305.588 231.364 305.562 233.846 305.207L233.96 306.235C231.389 306.724 228.634 306.743 226.609 306.743L226.432 305.588ZM228.349 301.221C228.342 302.179 229.098 302.77 230.101 302.77C231.116 302.77 231.872 302.179 231.878 301.221C231.872 300.269 231.123 299.672 230.101 299.672C229.098 299.672 228.342 300.269 228.349 301.221ZM234.531 309.143V297.653H235.94V309.143H234.531ZM247.227 297.653V304.471H245.817V301.665H243.862V300.51H245.817V297.653H247.227ZM237.578 303.328C239.425 302.693 240.396 301.151 240.396 299.634V299.545H238.01V298.402H244.205V299.545H241.831V299.621C241.831 301.018 242.758 302.427 244.535 303.023L243.824 304.141C242.548 303.709 241.647 302.833 241.139 301.754C240.638 302.973 239.679 303.963 238.314 304.445L237.578 303.328ZM239.444 306.946C239.432 305.569 240.923 304.763 243.342 304.763C245.773 304.763 247.258 305.569 247.265 306.946C247.258 308.324 245.773 309.124 243.342 309.13C240.923 309.124 239.432 308.324 239.444 306.946ZM240.841 306.946C240.834 307.657 241.749 308.044 243.342 308.038C244.948 308.044 245.855 307.657 245.855 306.946C245.855 306.229 244.948 305.842 243.342 305.842C241.749 305.842 240.834 306.229 240.841 306.946ZM259.325 304.331V305.448H254.755V309.13H253.358V305.448H248.839V304.331H259.325ZM250.108 303.138V298.11H251.505V299.52H256.634V298.11H258.056V303.138H250.108ZM251.505 301.995H256.634V300.637H251.505V301.995Z" fill="#333333"/>
<path d="M350.843 428.353L355.702 423.491L357.646 415.712L359.103 405.503L360.075 401.127L363.962 394.807L368.335 384.111L371.737 368.553L372.223 363.205L376.596 358.343L381.94 351.05V345.702L380.969 340.354L379.997 332.089L377.081 323.338C377.081 323.338 373.194 317.99 372.708 316.531C372.223 315.073 371.251 313.614 371.251 313.614V308.266C371.251 308.266 366.878 304.863 364.934 301.46C362.991 298.057 363.962 294.653 363.962 294.653C363.962 294.653 359.589 288.333 357.646 285.416C355.702 282.499 350.843 282.013 350.843 282.013L344.041 280.554L340.154 279.582L333.351 277.151C333.351 277.151 330.436 280.068 329.95 281.526C329.464 282.985 326.063 283.471 326.063 283.471L322.176 284.93L318.288 288.333L312.944 290.764L309.542 287.847L305.655 285.902L301.282 283.957L294.48 285.416L292.536 290.764L287.191 291.736L279.903 292.222L274.072 293.195L269.699 298.057L268.727 304.863L265.812 309.725L259.981 316.045L255.122 317.99L251.235 323.338L249 327.062L250.419 326.907L253.013 329.824L254.306 335.006L253.985 341.161L252.042 344.078C252.042 344.078 251.721 349.261 251.721 350.233C251.721 351.206 253.985 353.151 253.985 353.151L257.872 355.416L257.97 355.552L262.411 352.985H267.27L270.185 354.444L273.586 352.985H276.016L278.931 355.416L277.959 359.792C277.959 359.792 276.987 359.792 276.987 362.709C276.987 365.626 277.959 367.084 278.445 369.029C278.931 370.974 278.931 372.432 279.903 373.891C280.875 375.35 284.276 377.78 284.276 377.78L288.163 380.698L290.107 384.101L291.623 387.504H296.423L302.254 386.532C302.254 386.532 305.655 388.963 306.627 390.421C307.599 391.88 311 395.283 311.972 397.228C312.944 399.172 314.401 401.117 315.373 402.576C316.345 404.034 321.204 406.951 321.204 406.951L326.549 411.813L334.809 416.189L340.639 422.023L340.387 422.723L346.47 426.885L350.843 428.343V428.353Z" fill="#F9F9F9" stroke="#DDDDDD" stroke-linejoin="round"/>
<path d="M314.433 336.666V339.154H316.045V340.322H314.433V343.128H313.023V336.666H314.433ZM305.876 342.43V337.225H307.298V341.268C308.764 341.249 310.319 341.116 311.995 340.792L312.16 341.947C310.256 342.328 308.491 342.43 306.828 342.43H305.876ZM307.006 347.978V343.687H314.433V347.978H307.006ZM308.39 346.86H313.049V344.791H308.39V346.86ZM327.229 338.189V339.345H325.668V340.652H327.229V341.82H325.668V343.395H324.259V336.653H325.668V338.189H327.229ZM316.743 340.056C316.737 338.437 318.07 337.301 319.841 337.313C321.605 337.301 322.926 338.437 322.938 340.056C322.926 341.668 321.605 342.804 319.841 342.811C318.07 342.804 316.737 341.668 316.743 340.056ZM318.051 345.896C318.051 344.493 319.562 343.667 321.936 343.661C324.291 343.667 325.776 344.493 325.782 345.896C325.776 347.286 324.291 348.117 321.936 348.117C319.562 348.117 318.051 347.286 318.051 345.896ZM318.127 340.056C318.121 341.008 318.851 341.611 319.841 341.617C320.818 341.611 321.548 341.008 321.555 340.056C321.548 339.11 320.818 338.488 319.841 338.494C318.851 338.488 318.121 339.11 318.127 340.056ZM319.46 345.896C319.46 346.619 320.361 346.987 321.936 346.987C323.503 346.987 324.386 346.619 324.386 345.896C324.386 345.178 323.503 344.791 321.936 344.791C320.361 344.791 319.46 345.178 319.46 345.896ZM338.312 343.052V344.194H333.755V348.117H332.358V344.194H327.852V343.052H338.312ZM328.397 341.173C330.651 340.887 332.162 339.675 332.263 338.418H328.816V337.301H337.348V338.418H333.901C333.996 339.675 335.494 340.887 337.767 341.173L337.259 342.277C335.304 341.998 333.78 341.103 333.082 339.865C332.377 341.103 330.867 341.998 328.931 342.277L328.397 341.173Z" fill="#333333"/>
<path d="M290.288 384.111L288.344 380.707L284.457 377.79C284.457 377.79 281.056 375.359 280.084 373.901C279.112 372.442 279.112 370.984 278.626 369.039C278.141 367.094 277.169 365.636 277.169 362.719C277.169 359.802 278.141 359.802 278.141 359.802L279.112 355.426L276.197 352.995H273.768L270.366 354.454L267.451 352.995H262.592L258.151 355.562L260.318 358.664L257.723 363.526V367.415L261.931 370.011L263.875 375.194V380.377L263.554 385.239L261.61 390.1L257.072 394.641C257.072 394.641 257.072 397.879 257.393 399.503C257.714 401.127 260.629 402.741 260.629 402.741L265.809 404.034C265.809 404.034 268.724 402.09 270.347 400.796C271.97 399.503 276.498 398.531 276.498 398.531L281.678 396.586L285.244 396.265L289.132 394.32L289.511 394.661L292.212 388.486L290.269 384.111H290.288Z" fill="#F9F9F9" stroke="#DDDDDD" stroke-linejoin="round"/>
<path d="M274.56 381.352V382.38C274.553 383.453 274.553 384.627 274.255 386.252H275.842V387.395H271.284V392.143H269.862V387.395H265.381V386.252H272.82C273.138 384.69 273.15 383.516 273.15 382.494H266.612V381.352H274.56ZM286.176 380.653V392.143H284.779V380.653H286.176ZM277.238 382.799V381.656H282.646V385.96H278.698V388.271C280.507 388.258 282.062 388.163 283.853 387.864L283.979 389.02C282.031 389.356 280.317 389.432 278.254 389.426H277.251V384.843H281.212V382.799H277.238Z" fill="#333333"/>
<path d="M204.285 329.436L200.884 326.519L195.539 326.033L192.138 327.491L190.194 329.922L188.736 335.27L183.392 338.187L176.589 339.16L175.131 335.27L174.645 329.922L176.589 325.06L179.019 321.657L179.99 316.795V307.072L182.42 301.237L183.392 293.945L181 292L176.5 293.5L174.5 294L172.5 298.5L171 302L166 304.5L164 306L159.583 305.127L155.696 301.724L151.5 299.5L147.5 301.5L144.5 304.5H137.5L134.5 305L132.859 303.182L129.943 300.265L128 297L124.5 298.5L123 304.5L119.5 309L116 313.5L114.5 315.5L106.5 317.5H99.5L92 319L86 321L80.5 323.5L73.5 327.5L73 329L75.0373 336.077L84.7552 343.205L92.5295 348.066L101.596 353.58L116.173 365.248L138.203 382.099C138.203 382.099 145.327 387.933 145.978 389.226C146.629 390.52 151.488 393.767 151.488 393.767L156.347 394.419L159.583 390.209L160.555 385.998L162.498 384.054L164.762 385.677L167.357 385.998L170.924 380.164L171.244 374.009L172.216 366.882L172.867 360.075L173.839 356.837L177.075 354.241L182.906 351.975L187.444 348.407L191.01 349.058L194.898 351.975C194.898 351.975 196.841 355.865 197.492 356.837C198.143 357.809 199.436 359.103 199.436 359.103H203.323L205.587 357.479C205.587 357.479 206.559 354.883 206.88 353.269C207.2 351.645 207.2 350.351 207.2 349.379C207.2 348.407 207.851 345.49 207.851 345.49L209.144 343.866C209.144 343.866 210.436 342.242 210.767 341.27C211.087 340.297 211.418 338.673 211.418 337.701C211.418 337.088 211.807 336.077 212.263 335.173L209.154 332.839L204.295 329.436H204.285Z" fill="#F9F9F9" stroke="#DDDDDD" stroke-linejoin="round"/>
<path d="M140.75 338.707V339.812C140.737 341.24 140.737 342.833 140.293 345.232L138.871 345.08C139.322 342.846 139.322 341.214 139.328 339.837H132.473V338.707H140.75ZM131.381 347.645V346.489H135.24V342.503H136.637V346.489H141.842V347.645H131.381ZM153.229 339.189V340.345H151.668V341.652H153.229V342.82H151.668V344.395H150.259V337.653H151.668V339.189H153.229ZM142.743 341.056C142.737 339.437 144.07 338.301 145.841 338.313C147.605 338.301 148.926 339.437 148.938 341.056C148.926 342.668 147.605 343.804 145.841 343.811C144.07 343.804 142.737 342.668 142.743 341.056ZM144.051 346.896C144.051 345.493 145.562 344.667 147.936 344.661C150.291 344.667 151.776 345.493 151.782 346.896C151.776 348.286 150.291 349.117 147.936 349.117C145.562 349.117 144.051 348.286 144.051 346.896ZM144.127 341.056C144.121 342.008 144.851 342.611 145.841 342.617C146.818 342.611 147.548 342.008 147.555 341.056C147.548 340.11 146.818 339.488 145.841 339.494C144.851 339.488 144.121 340.11 144.127 341.056ZM145.46 346.896C145.46 347.619 146.361 347.987 147.936 347.987C149.503 347.987 150.386 347.619 150.386 346.896C150.386 346.178 149.503 345.791 147.936 345.791C146.361 345.791 145.46 346.178 145.46 346.896Z" fill="#333333"/>
<path d="M39.7328 288.985L35.1945 288.333L28.7127 292.874L22.882 289.636L20.2873 283.802L8.62586 282.509L3.44623 283.802L0.851562 292.232L5.38981 296.773V301.956L2.15376 307.138V311.679L4.09733 315.569L6.0409 320.11L6.692 327.237V333.071L4.74843 337.612C4.74843 337.612 4.09733 338.906 4.74843 340.85C5.39952 342.795 7.3431 345.391 7.3431 345.391L9.28667 349.932V356.418L13.1738 361.6L13.8249 367.435L17.7121 370.031V377.158L18.3632 381.048L26.1375 385.589L34.5628 384.295L42.3371 381.699L48.1679 377.81L53.3475 368.086L55.2911 363.545L59.8293 360.949H63.7165C63.7165 360.949 66.9525 363.545 69.5472 365.49C72.1418 367.435 77.9726 368.728 77.9726 370.673C77.9726 372.617 79.9161 372.617 80.5672 374.562C81.2183 376.507 88.9926 379.103 88.9926 379.103C88.9926 379.103 94.1723 382.341 96.1158 382.992C98.0594 383.644 104.541 383.644 106.485 384.937C108.428 386.23 115.552 386.882 115.552 386.882L124.618 386.23L125.911 381.689L123.316 374.562L107.768 364.187L96.7572 357.701L79.9161 346.033L68.2547 338.254L65.0186 331.127L66.9622 323.348L67.6133 315.569L69.5569 309.083L66.3208 301.304C66.3208 301.304 63.7262 294.819 63.7262 292.874C63.7262 290.929 61.1315 285.095 61.1315 285.095L56.5933 279.912H52.055L48.819 283.802L45.5829 287.04L39.7522 288.985H39.7328Z" fill="#F9F9F9" stroke="#DDDDDD" stroke-linejoin="round"/>
<path d="M32.4492 326.352C32.4556 329.329 30.4307 331.398 27.0156 332.28L26.457 331.188C29.1294 330.497 30.6973 329.145 30.9321 327.469H27.1172V326.352H32.4492ZM28.3613 336.978V332.585H35.9404V336.978H28.3613ZM29.7578 335.86H34.5566V333.702H29.7578V335.86ZM34.5186 332.09V325.666H35.9404V332.09H34.5186ZM48.1025 334.616V335.797H37.6162V334.616H42.123V332.356H38.5176V331.239H40.1299V327.812H38.4795V326.669H47.1885V327.812H45.5127V331.239H47.1504V332.356H43.5195V334.616H48.1025ZM41.5391 331.239H44.1162V327.812H41.5391V331.239Z" fill="#333333"/>
<path d="M295.633 442.938L300.006 444.883H306.322C307.78 444.883 311.667 445.369 313.125 446.342C314.583 447.314 317.984 447.314 317.984 447.314L325.272 444.397L328.674 439.535L328.188 432.729L330.617 431.27L334.99 430.784L338.877 427.381L340.821 422.033L334.99 416.199L326.73 411.823L321.385 406.961C321.385 406.961 316.526 404.044 315.554 402.585C314.583 401.127 313.125 399.182 312.153 397.237C311.181 395.293 307.78 391.889 306.808 390.431C305.837 388.972 302.435 386.542 302.435 386.542L296.605 387.514H291.804L292.232 388.486L289.53 394.661L293.038 397.879C293.038 397.879 293.359 403.062 293.038 404.034C292.717 405.007 288.5 409.548 288.5 409.548L283.641 411.492L280.074 414.73L276.187 421.858L272.3 426.72L271.979 430.93L277.49 434.498L281.056 437.736L280.084 441.305L278.141 445.846C278.141 445.846 275.225 449.414 273.933 449.414L278.141 449.735L283.971 450.221L289.802 450.708L293.067 448.374L293.203 443.901L295.633 442.929V442.938Z" fill="#F9F9F9" stroke="#DDDDDD" stroke-linejoin="round"/>
<path d="M300.369 417.653V422.224H302.134V423.392H300.369V429.13H298.973V417.653H300.369ZM291.317 420.548V419.418H294.034V417.818H295.443V419.418H298.084V420.548H291.317ZM291.851 424.001C291.838 422.414 293.069 421.291 294.745 421.297C296.396 421.291 297.621 422.414 297.627 424.001C297.621 425.582 296.396 426.692 294.745 426.692C293.069 426.692 291.838 425.582 291.851 424.001ZM293.196 424.001C293.19 424.934 293.844 425.531 294.745 425.524C295.627 425.531 296.269 424.934 296.281 424.001C296.269 423.068 295.627 422.452 294.745 422.452C293.844 422.452 293.19 423.068 293.196 424.001ZM311.668 417.666V420.154H313.28V421.322H311.668V424.128H310.259V417.666H311.668ZM303.111 423.43V418.225H304.533V422.268C306 422.249 307.555 422.116 309.23 421.792L309.396 422.947C307.491 423.328 305.727 423.43 304.063 423.43H303.111ZM304.241 428.978V424.687H311.668V428.978H304.241ZM305.625 427.86H310.284V425.791H305.625V427.86Z" fill="#333333"/>
<path d="M591.056 401.613L589.113 399.668L583.768 398.696L579.881 396.751L575.508 393.348L570.649 389.459L568.219 386.542L564.332 388C564.332 388 561.417 388 559.959 387.514C558.502 387.028 557.044 385.569 557.044 385.569L551.213 382.652H538.094C536.636 382.652 533.235 383.138 533.235 383.138C533.235 383.138 527.89 382.652 527.404 381.194C526.919 379.735 524.975 378.276 524.975 378.276C524.975 378.276 521.574 375.359 521.574 373.901C521.574 372.442 516.715 371.47 515.257 370.498C513.799 369.525 510.398 365.636 510.398 365.636H504.567L503.11 360.774L499.709 358.829L496.793 356.398L491.448 354.454L489.505 351.05L483.674 349.592L478.329 350.078L475.414 351.537L472.984 354.94L472.013 357.371L466.668 357.857H464.326L464.724 362.232L468.125 370.011L466.668 374.387L465.21 379.735L463.267 385.569L457.922 386.542C457.922 386.542 451.605 386.055 450.147 386.542C448.69 387.028 442.859 388 442.859 388L437.028 391.403L430.226 389.459L425.853 383.138L424.881 376.332V368.553L421.966 362.719L417.593 357.371L416.135 354.454L411.762 351.537L410.79 347.161L410.304 342.299L408.361 340.841L403.988 339.868L397.185 344.73L395.241 347.647L388.925 349.106L382.122 347.628V351.05L376.777 358.343L372.404 363.205L371.919 368.553L368.517 384.111L364.144 394.807L360.257 401.127L359.285 405.503L357.828 415.712L356.739 420.059L360.743 418.629L368.031 417.657L374.348 418.629L381.636 424.95L385.524 433.701V441.48L387.953 446.828L387.467 451.204L384.552 454.607L379.207 457.524V460.927L382.608 465.789L386.495 470.165L389.897 475.513L393.298 477.457L397.671 474.054L400.586 470.651L404.473 470.165L411.762 471.623L413.705 472.596L420.994 475.513L426.825 476.485L432.169 473.568L438.486 469.678H446.26L448.69 474.054L452.577 479.888L456.464 482.805L463.267 481.833C463.267 481.833 465.696 481.347 467.154 481.347C468.611 481.347 472.498 480.861 472.498 480.861L479.787 478.916L482.702 478.43C482.702 478.43 483.674 478.43 485.132 478.916C486.589 479.402 491.934 481.347 491.934 481.347L496.793 481.833L500.68 483.778L502.624 485.236L505.053 483.292L510.884 480.861L515.743 482.805L518.172 484.264L520.602 486.695L522.546 487.667L525.947 486.695L530.806 484.75L531.777 487.181V491.07L530.32 496.418V502.739L534.207 505.17L540.038 505.656L543.439 504.197L549.756 506.628L558.502 510.382V509.545L561.903 508.087L561.417 503.225L563.361 497.877L564.818 493.015L563.846 486.209L565.304 480.861L567.248 477.944L571.135 475.513L572.593 473.568V469.678L572.107 463.844C572.107 463.844 570.163 460.927 569.677 458.496C569.191 456.065 571.621 455.093 571.621 455.093C571.621 455.093 569.191 449.745 569.191 448.287C569.191 446.828 566.276 444.883 566.276 444.883L561.417 442.452C561.417 442.452 557.53 439.049 556.072 437.591C554.614 436.132 555.1 432.729 555.1 432.729L558.502 428.839L563.361 427.381L567.248 422.519L570.649 419.116L574.05 416.199L577.937 413.281C577.937 413.281 580.853 413.281 582.796 413.768C584.74 414.254 586.683 413.768 586.683 413.768L590.085 409.392L593 406.961L591.056 401.613Z" fill="#F9F9F9" stroke="#DDDDDD" stroke-linejoin="round"/>
<path d="M468.994 425.189V426.345H467.433V427.652H468.994V428.82H467.433V430.395H466.023V423.653H467.433V425.189H468.994ZM458.508 427.056C458.501 425.437 459.834 424.301 461.605 424.313C463.37 424.301 464.69 425.437 464.703 427.056C464.69 428.668 463.37 429.804 461.605 429.811C459.834 429.804 458.501 428.668 458.508 427.056ZM459.815 432.896C459.815 431.493 461.326 430.667 463.7 430.661C466.055 430.667 467.541 431.493 467.547 432.896C467.541 434.286 466.055 435.117 463.7 435.117C461.326 435.117 459.815 434.286 459.815 432.896ZM459.892 427.056C459.885 428.008 460.615 428.611 461.605 428.617C462.583 428.611 463.313 428.008 463.319 427.056C463.313 426.11 462.583 425.488 461.605 425.494C460.615 425.488 459.885 426.11 459.892 427.056ZM461.225 432.896C461.225 433.619 462.126 433.987 463.7 433.987C465.268 433.987 466.15 433.619 466.15 432.896C466.15 432.178 465.268 431.791 463.7 431.791C462.126 431.791 461.225 432.178 461.225 432.896ZM476.027 424.453V425.596H475.012V428.852C475.431 428.82 475.85 428.782 476.243 428.731V427.703H477.817V426.713H476.243V425.583H477.817V423.653H479.227V430.687H477.817V428.833H476.275L476.332 429.772C474.142 430.134 471.609 430.172 469.781 430.179L469.629 429.011C470.029 429.011 470.467 429.011 470.924 429.004V425.596H469.921V424.453H476.027ZM471.444 433.01C471.432 431.658 472.911 430.89 475.342 430.89C477.792 430.89 479.258 431.658 479.265 433.01C479.258 434.33 477.792 435.117 475.342 435.117C472.911 435.117 471.432 434.33 471.444 433.01ZM472.295 428.985C472.739 428.973 473.196 428.954 473.653 428.935V425.596H472.295V428.985ZM472.841 433.01C472.834 433.676 473.736 434.025 475.342 434.025C476.954 434.025 477.855 433.676 477.855 433.01C477.855 432.331 476.954 431.969 475.342 431.969C473.736 431.969 472.834 432.331 472.841 433.01Z" fill="#333333"/>
<path d="M558.501 510.382L549.755 506.628L543.439 504.197L540.037 505.656L534.207 505.17L530.32 502.739V496.418L531.777 491.07V487.181L530.805 484.75L525.947 486.695L522.545 487.667L520.602 486.695L518.172 484.264L515.743 482.805L510.884 480.861L505.053 483.292L502.624 485.236L500.68 483.778L496.793 481.833L491.934 481.347C491.934 481.347 486.589 479.402 485.131 478.916C483.674 478.43 482.702 478.43 482.702 478.43L479.787 478.916L472.498 480.861C472.498 480.861 468.611 481.347 467.153 481.347C465.696 481.347 463.266 481.833 463.266 481.833L456.464 482.805L452.577 479.888L448.689 474.054L446.26 469.678H438.486L432.169 473.568L426.824 476.485L420.994 475.513L413.705 472.596L411.762 471.623L404.473 470.165L400.586 470.651L397.671 474.054L393.647 477.185L394.114 480.209L394.765 484.75L398.652 488.64L400.596 493.18L401.247 497.07L407.078 498.363L410.965 499.656L411.616 503.546L413.559 510.673L416.795 513.911L423.277 513.26H427.815L433.646 517.801L434.297 521.039L441.421 524.277L445.959 524.928L450.497 529.469L451.148 532.707L453.743 537.248L457.63 539.844V547.623L453.743 550.861L453.092 556.695V563.181L455.035 569.015V576.142L451.799 579.38V600.772C451.799 600.772 451.799 602.066 450.507 604.01C449.214 605.955 447.912 608.551 447.912 608.551L448.563 615.037L453.743 616.982L462.168 616.33L470.594 615.679L473.83 613.734L474.481 608.551H479.019L481.614 609.844L486.152 612.441L487.444 615.679L490.68 618.275L491.331 620.871L495.219 622.164L497.813 621.513L498.785 629.613H501.215L505.102 633.988L509.961 636.905H522.594L525.023 635.447L526.967 628.64L530.854 625.237L533.769 620.861L535.227 615.027L537.171 613.082L542.03 611.138L543.001 606.276L545.431 599.955L549.318 589.746L551.747 584.398L550.776 579.536L551.747 575.16L553.691 569.812L555.149 564.464L556.121 560.575L553.691 555.227C553.691 555.227 552.233 550.851 552.233 549.393C552.233 547.934 553.691 546.476 553.691 546.476L557.092 544.531L558.064 538.211L558.55 529.945L557.578 523.139L558.55 512.929V510.362L558.501 510.382Z" fill="#F9F9F9" stroke="#DDDDDD" stroke-linejoin="round"/>
<path d="M490.517 541.491C491.551 541.491 492.408 542.069 492.922 543.078H495.607V540.653H497.004V552.143H495.607V547.801H493.024C492.522 548.943 491.621 549.604 490.517 549.604C488.79 549.604 487.565 548.036 487.571 545.541C487.565 543.065 488.79 541.491 490.517 541.491ZM488.93 545.541C488.923 547.306 489.571 548.328 490.517 548.334C491.469 548.328 492.11 547.306 492.116 545.541C492.11 543.789 491.469 542.761 490.517 542.761C489.571 542.761 488.923 543.789 488.93 545.541ZM493.322 544.233C493.405 544.633 493.449 545.071 493.449 545.541C493.449 545.935 493.417 546.309 493.354 546.658H495.607V544.233H493.322ZM509.077 547.052V548.194H504.52V552.117H503.123V548.194H498.616V547.052H509.077ZM499.162 545.173C501.416 544.887 502.926 543.675 503.028 542.418H499.581V541.301H508.112V542.418H504.666C504.761 543.675 506.259 544.887 508.531 545.173L508.023 546.277C506.068 545.998 504.545 545.103 503.847 543.865C503.142 545.103 501.631 545.998 499.695 546.277L499.162 545.173Z" fill="#333333"/>
<path d="M368.547 556.396L367.255 552.507H371.793L373.085 547.966L374.378 542.783L378.916 537.601L382.152 536.949L387.332 535.656L390.568 533.711L397.05 529.17L405.475 520.74L413.5 510.5L412 504L411 499.5L407 498L401.5 497L400.5 493L399 489L395 484.5L394.455 480.37L393.804 477.792L393 477L390 475.5L386.5 470L382.5 465.5L379 461V458L384.241 454.95L387.5 451L388 447L385.5 441.5V434L382 425L374.5 418.5L368 417.5L360.5 418.5L356.429 420.402L355 424L351 428L346 426.5L341 422L338.567 427.724L335 430L330.5 431L328 433L328.364 439.878L324.5 444.5L318 447C318 447 314.458 446.972 313 446C311.542 445.028 308.958 445 307.5 445L300.182 444.74L295.5 443L292.893 444.254L292.757 448.727V449.5L294.351 452.033L296.781 458.839L300.182 462.729C300.182 462.729 300.668 466.618 300.668 468.077C300.668 469.535 300.182 474.883 300.182 474.883L297.752 478.773L295.323 480.717L291.436 484.121C291.436 484.121 289.006 488.982 289.006 490.441C289.006 491.899 289.492 495.303 289.492 495.303L291.922 499.192L289.006 502.109H285.119L284.633 505.026L280.746 508.916L277.831 511.833L273.458 514.264L272 518.639L273.944 522.043L273.292 523.56L276.373 524.96L286.091 523.987L290.95 522.043L297.266 521.557L302.125 523.987L302.611 528.849L306.013 529.335L309.414 526.418L310.871 521.557L312.329 517.667L314.759 515.722H318.646C318.646 515.722 321.561 515.236 323.019 515.722C324.476 516.209 332.251 519.612 332.251 519.612L333.708 522.529H339.539L340.997 525.446L339.053 528.363L340.511 532.739V537.114L337.596 541.976V545.866L339.053 549.269V556.075L338.567 559.479L340.997 563.368H344.884L348.285 564.827L353.63 563.368C353.63 563.368 356.06 559.965 358.489 561.91C360.918 563.854 364.32 564.827 364.32 564.827L368.528 560.937V556.396H368.547Z" fill="#F9F9F9" stroke="#DDDDDD" stroke-linejoin="round"/>
<path d="M342.792 481.313V482.024C342.792 482.754 342.792 483.783 342.513 485.071L341.129 484.957C341.338 483.922 341.376 483.123 341.389 482.469H336.939V481.313H342.792ZM336.254 485.985C336.939 485.985 337.701 485.979 338.501 485.966V483.853H339.897V485.928C341.091 485.884 342.303 485.808 343.414 485.668L343.49 486.658C341.104 487.064 338.45 487.134 336.381 487.128L336.254 485.985ZM337.752 489.946C337.752 488.639 339.263 487.845 341.688 487.839C344.119 487.845 345.617 488.639 345.623 489.946C345.617 491.311 344.119 492.098 341.688 492.092C339.263 492.098 337.752 491.311 337.752 489.946ZM339.187 489.946C339.18 490.651 340.107 490.987 341.688 490.987C343.262 490.987 344.169 490.651 344.176 489.946C344.169 489.305 343.262 488.931 341.688 488.931C340.107 488.931 339.18 489.305 339.187 489.946ZM344.087 487.712V480.653H345.534V483.586H347.02V484.767H345.534V487.712H344.087ZM358.077 487.052V488.194H353.52V492.117H352.123V488.194H347.616V487.052H358.077ZM348.162 485.173C350.416 484.887 351.926 483.675 352.028 482.418H348.581V481.301H357.112V482.418H353.666C353.761 483.675 355.259 484.887 357.531 485.173L357.023 486.277C355.068 485.998 353.545 485.103 352.847 483.865C352.142 485.103 350.631 485.998 348.695 486.277L348.162 485.173Z" fill="#333333"/>
<path d="M233.439 508.087L236.84 511.976L242.671 512.949L246.072 515.866C246.072 515.866 253.361 519.269 254.818 519.755C256.276 520.241 260.163 524.131 261.135 525.589C262.107 527.048 263.078 526.562 265.508 527.048C267.937 527.534 272.796 525.103 272.796 525.103L274.254 521.7L272.31 518.297L273.768 513.921L278.141 511.49L281.056 508.573L284.944 504.683L285.43 501.766H289.317L292.232 498.849L289.803 494.96C289.803 494.96 289.317 491.557 289.317 490.098C289.317 488.64 291.746 483.778 291.746 483.778L295.633 480.374L298.063 478.43L300.492 474.54C300.492 474.54 300.978 469.192 300.978 467.734C300.978 466.275 300.492 462.386 300.492 462.386L297.091 458.496L294.662 451.69L292.5 448.5L289.803 450.717L283.972 450.231L278.141 449.745L273.933 449.424C272.641 449.424 270.046 451.048 270.046 451.048L263.244 455.258L255.79 459.799L251.582 464.01L246.072 469.192L241.864 472.761H238.298L233.118 470.816C233.118 470.816 233.041 470.651 232.924 470.379L231.107 478.974L234.411 484.274L233.925 488.649L230.524 493.997L226.636 503.235L225.781 506.025L230.524 507.61L233.439 508.096V508.087Z" fill="#F9F9F9" stroke="#DDDDDD" stroke-linejoin="round"/>
<path d="M257.583 480.304C257.577 481.865 258.491 483.293 260.287 483.858L259.525 484.963C258.275 484.519 257.399 483.681 256.91 482.595C256.402 483.846 255.444 484.83 254.054 485.318L253.305 484.176C255.203 483.554 256.155 482.024 256.161 480.367V479.275H257.583V480.304ZM255.209 487.921C255.196 486.524 256.688 485.706 259.106 485.712C261.538 485.706 263.023 486.524 263.029 487.921C263.023 489.317 261.538 490.117 259.106 490.117C256.688 490.117 255.196 489.317 255.209 487.921ZM256.605 487.921C256.599 488.619 257.513 489.006 259.106 489.013C260.712 489.006 261.62 488.619 261.62 487.921C261.62 487.197 260.712 486.81 259.106 486.804C257.513 486.81 256.599 487.197 256.605 487.921ZM259.297 482.03V480.875H261.582V478.653H262.991V485.407H261.582V482.03H259.297ZM273.668 478.666V481.154H275.28V482.322H273.668V485.128H272.259V478.666H273.668ZM265.111 484.43V479.225H266.533V483.268C268 483.249 269.555 483.116 271.23 482.792L271.396 483.947C269.491 484.328 267.727 484.43 266.063 484.43H265.111ZM266.241 489.978V485.687H273.668V489.978H266.241ZM267.625 488.86H272.284V486.791H267.625V488.86Z" fill="#333333"/>
<path d="M214.489 487.181L219.348 484.264L223.721 483.292L229.066 482.319L231.01 479.402L232.924 470.369C232.37 469.105 230.786 465.449 230.524 464.651C230.203 463.679 231.496 460.11 231.496 460.11L231.175 457.193L229.231 454.597L224.052 456.542L220.485 457.514L217.249 455.249L213.041 453.625L208.503 455.569L204.616 459.459C204.616 459.459 198.465 463.028 197.493 463.669L197.007 475.503L201.38 481.337L205.84 487.589L209.154 486.685L214.499 487.171L214.489 487.181Z" fill="#F9F9F9" stroke="#DDDDDD" stroke-linejoin="round"/>
<path d="M209.792 466.847V467.659C209.792 468.681 209.792 470.128 209.475 472.103L208.078 471.988C208.357 470.249 208.389 468.96 208.396 467.977H203.889V466.847H209.792ZM203.279 473.588C203.958 473.582 204.714 473.575 205.501 473.556V470.122H206.897V473.512C208.065 473.461 209.265 473.378 210.363 473.245L210.439 474.299C208.072 474.686 205.444 474.73 203.419 474.718L203.279 473.588ZM210.96 477.13V465.653H212.382V470.325H214.045V471.519H212.382V477.13H210.96ZM218.742 468.37C218.736 469.735 219.694 471.062 221.51 471.62L220.824 472.725C219.523 472.337 218.577 471.506 218.057 470.452C217.549 471.588 216.603 472.483 215.264 472.915L214.578 471.811C216.387 471.246 217.333 469.843 217.333 468.37V468.192H214.934V467.075H217.333V465.729H218.755V467.075H221.142V468.192H218.742V468.37ZM216.698 476.901V473.448H218.107V475.759H224.519V476.901H216.698ZM220.761 470.211V469.081H222.817V465.666H224.227V474.185H222.817V470.211H220.761Z" fill="#333333"/>
<path d="M167.358 515.866L171.245 514.893L176.59 506.628L181.934 504.197H186.793L192.624 506.628L196.511 505.17L204.286 494.474L206.229 488.153L201.37 481.347L196.997 475.513L197.483 463.679C196.511 464.33 195.219 467.889 195.219 467.889L191.652 469.513L186.473 468.22L184.85 463.679L181.934 461.734L178.698 464.33L175.783 466.927L172.547 468.871C172.547 468.871 170.749 467.967 169.389 467.092L166.872 474.064L164.928 481.357L159.097 483.787L157.64 487.677L156.668 490.594L159.583 495.456L161.041 499.831L161.527 505.179L164.928 509.069L167.358 515.875V515.866Z" fill="#F9F9F9" stroke="#DDDDDD"/>
<path d="M178.433 482.653V486.018H180.032V487.186H178.433V491.045H177.023V482.653H178.433ZM169.508 486.31C169.501 484.615 170.86 483.421 172.605 483.415C174.351 483.421 175.69 484.615 175.703 486.31C175.69 487.979 174.351 489.191 172.605 489.191C170.86 489.191 169.501 487.979 169.508 486.31ZM170.892 486.31C170.885 487.3 171.647 487.954 172.605 487.947C173.577 487.954 174.313 487.3 174.319 486.31C174.313 485.294 173.577 484.646 172.605 484.646C171.647 484.646 170.885 485.294 170.892 486.31ZM171.082 493.901V490.169H172.491V492.759H178.89V493.901H171.082ZM191.229 484.189V485.345H189.668V486.652H191.229V487.82H189.668V489.395H188.259V482.653H189.668V484.189H191.229ZM180.743 486.056C180.737 484.437 182.07 483.301 183.841 483.313C185.605 483.301 186.926 484.437 186.938 486.056C186.926 487.668 185.605 488.804 183.841 488.811C182.07 488.804 180.737 487.668 180.743 486.056ZM182.051 491.896C182.051 490.493 183.562 489.667 185.936 489.661C188.291 489.667 189.776 490.493 189.782 491.896C189.776 493.286 188.291 494.117 185.936 494.117C183.562 494.117 182.051 493.286 182.051 491.896ZM182.127 486.056C182.121 487.008 182.851 487.611 183.841 487.617C184.818 487.611 185.548 487.008 185.555 486.056C185.548 485.11 184.818 484.488 183.841 484.494C182.851 484.488 182.121 485.11 182.127 486.056ZM183.46 491.896C183.46 492.619 184.361 492.987 185.936 492.987C187.503 492.987 188.386 492.619 188.386 491.896C188.386 491.178 187.503 490.791 185.936 490.791C184.361 490.791 183.46 491.178 183.46 491.896Z" fill="#333333"/>
<path d="M140.633 463.358C140.633 463.358 141.119 466.761 141.605 469.192C142.091 471.623 142.577 473.568 143.063 475.999C143.549 478.43 144.52 482.805 144.52 482.805L147.922 488.153L156.668 490.584L157.64 487.667L159.097 483.778L164.928 481.347L166.872 474.054L169.388 467.082C168.757 466.664 168.213 466.256 168.009 465.945C167.357 464.972 167.357 463.348 167.357 463.348C167.357 463.348 163.791 458.807 163.15 457.193C162.499 455.57 161.206 453.625 161.206 453.625L159.914 448.763V445.194L159.262 439.36L154.724 437.416L151.158 438.709L148.563 440.974L145.968 444.543L140.789 447.139H139.409L138.204 451.68L136.26 455.083L135.57 455.365L137.232 457.028L140.633 463.348V463.358Z" fill="#F9F9F9" stroke="#DDDDDD" stroke-linejoin="round"/>
<path d="M148.792 459.313V460.024C148.792 460.754 148.792 461.783 148.513 463.071L147.129 462.957C147.338 461.922 147.376 461.123 147.389 460.469H142.939V459.313H148.792ZM142.254 463.985C142.939 463.985 143.701 463.979 144.501 463.966V461.853H145.897V463.928C147.091 463.884 148.303 463.808 149.414 463.668L149.49 464.658C147.104 465.064 144.45 465.134 142.381 465.128L142.254 463.985ZM143.752 467.946C143.752 466.639 145.263 465.845 147.688 465.839C150.119 465.845 151.617 466.639 151.623 467.946C151.617 469.311 150.119 470.098 147.688 470.092C145.263 470.098 143.752 469.311 143.752 467.946ZM145.187 467.946C145.18 468.651 146.107 468.987 147.688 468.987C149.262 468.987 150.169 468.651 150.176 467.946C150.169 467.305 149.262 466.931 147.688 466.931C146.107 466.931 145.18 467.305 145.187 467.946ZM150.087 465.712V458.653H151.534V461.586H153.02V462.767H151.534V465.712H150.087ZM163.227 458.653V465.407H161.817V463.82H159.507V464.709H154.111V459.517H159.507V460.405H161.817V458.653H163.227ZM155.444 467.921C155.432 466.524 156.923 465.706 159.342 465.712C161.773 465.706 163.258 466.524 163.265 467.921C163.258 469.317 161.773 470.117 159.342 470.117C156.923 470.117 155.432 469.317 155.444 467.921ZM155.521 463.579H158.11V460.634H155.521V463.579ZM156.841 467.921C156.834 468.632 157.749 469.025 159.342 469.025C160.948 469.025 161.855 468.632 161.855 467.921C161.855 467.178 160.948 466.797 159.342 466.791C157.749 466.797 156.834 467.178 156.841 467.921ZM159.507 462.678H161.817V461.522H159.507V462.678Z" fill="#333333"/>
<path d="M190.194 546.009L196.025 544.55L198.941 535.799L198.455 532.882L202.342 531.423L207.201 529.479L212.546 528.506L215.947 526.075L218.862 520.241L221.778 515.379L224.693 509.545L226.636 503.225L230.524 493.987L233.925 488.639L234.411 484.264L231.107 478.964L231.009 479.402L229.066 482.319L223.721 483.291L219.348 484.264L214.489 487.181L209.144 486.695L205.83 487.599L206.229 488.153L204.285 494.474L196.511 505.17L194.004 506.113L197.483 509.059V515.379L196.025 523.158L190.68 528.993L188.737 532.882L184.85 534.34L182.459 535.371L181.934 541.633L180.282 543.286L184.364 543.578L190.194 546.009Z" fill="#F9F9F9" stroke="#DDDDDD"/>
<path d="M204.101 501.453C205.922 501.447 207.249 502.596 207.262 504.221C207.249 505.852 205.922 506.995 204.101 507.001C202.298 506.995 200.946 505.852 200.952 504.221C200.946 502.596 202.298 501.447 204.101 501.453ZM200.432 508.588C202.501 508.588 205.364 508.562 207.846 508.207L207.96 509.235C205.389 509.724 202.634 509.743 200.609 509.743L200.432 508.588ZM202.349 504.221C202.342 505.179 203.098 505.77 204.101 505.77C205.116 505.77 205.872 505.179 205.878 504.221C205.872 503.269 205.123 502.672 204.101 502.672C203.098 502.672 202.342 503.269 202.349 504.221ZM208.531 512.143V500.653H209.94V512.143H208.531ZM220.706 500.666V503.688H222.255V504.855H220.706V507.902H219.297V500.666H220.706ZM211.591 506.227C212.422 506.227 213.387 506.22 214.396 506.195V505.312C213.076 505.109 212.207 504.303 212.213 503.192C212.207 501.904 213.381 501.028 215.082 501.021C216.764 501.028 217.951 501.904 217.964 503.192C217.951 504.291 217.101 505.084 215.818 505.306V506.138C216.777 506.087 217.735 506.004 218.624 505.884L218.751 506.874C216.358 507.287 213.705 507.325 211.743 507.331L211.591 506.227ZM213.038 510.086C213.032 508.785 214.504 508.036 216.91 508.042C219.297 508.036 220.763 508.785 220.77 510.086C220.763 511.349 219.297 512.117 216.91 512.117C214.504 512.117 213.032 511.349 213.038 510.086ZM213.533 503.192C213.521 503.897 214.143 504.329 215.082 504.335C216.002 504.329 216.625 503.897 216.631 503.192C216.625 502.494 216.002 502.088 215.082 502.088C214.143 502.088 213.521 502.494 213.533 503.192ZM214.422 510.086C214.416 510.695 215.317 511.025 216.91 511.025C218.459 511.025 219.36 510.695 219.373 510.086C219.36 509.445 218.459 509.115 216.91 509.108C215.317 509.115 214.416 509.445 214.422 510.086Z" fill="#333333"/>
<path d="M174.645 525.589L178.533 532.882L181.448 535.799L184.849 534.34L188.736 532.882L190.68 528.992L196.025 523.158L197.482 515.379V509.059L194.003 506.113L192.623 506.628L186.793 504.197H181.934L176.589 506.628L171.244 514.893L170.457 515.088L170.758 519.269L174.645 525.589Z" fill="#F9F9F9" stroke="#DDDDDD" stroke-linejoin="round"/>
<path d="M182.585 512.212V513.177C182.591 514.142 182.591 515.202 182.331 516.592H183.867V517.709H179.386V520.273H177.977V517.709H173.381V516.592H180.89C181.157 515.271 181.176 514.275 181.176 513.354H174.676V512.212H182.585ZM174.638 522.901V519.232H176.047V521.759H182.788V522.901H174.638ZM195.103 520.616V521.797H184.616V520.616H189.123V518.356H185.518V517.239H187.13V513.812H185.479V512.669H194.188V513.812H192.513V517.239H194.15V518.356H190.52V520.616H195.103ZM188.539 517.239H191.116V513.812H188.539V517.239Z" fill="#333333"/>
<path d="M120.225 453.148L131.401 457.038L136.26 455.093L138.203 451.69L139.408 447.149H135.929L135.278 444.883L136.25 440.673L137.222 435.811C137.222 435.811 136.901 431.601 136.901 430.628C136.901 429.656 138.524 425.767 138.524 425.767L139.496 420.253C139.496 420.253 137.232 416.043 136.581 415.071C135.929 414.098 132.042 410.86 132.042 410.86L125.24 411.512L120.381 412.163L115.522 409.246L110.663 407.622L108.068 409.567L105.474 414.108L105.153 421.566L104.181 424.483L99.9734 427.079C99.9734 427.079 98.0298 431.941 97.7091 432.913C97.3884 433.886 96.7373 436.803 96.7373 436.803L98.0298 442.316L104.512 446.527L111.965 450.095L116.338 452.205L120.225 453.177V453.148Z" fill="#F9F9F9" stroke="#DDDDDD" stroke-linejoin="round"/>
<path d="M117.854 433.331V434.448H113.284V438.13H111.888V434.448H107.368V433.331H117.854ZM108.638 432.138V427.11H110.034V428.52H115.163V427.11H116.585V432.138H108.638ZM110.034 430.995H115.163V429.637H110.034V430.995ZM122.742 429.37C122.736 430.735 123.694 432.062 125.51 432.62L124.824 433.725C123.523 433.337 122.577 432.506 122.057 431.452C121.549 432.588 120.603 433.483 119.264 433.915L118.578 432.811C120.387 432.246 121.333 430.843 121.333 429.37V429.192H118.934V428.075H121.333V426.729H122.755V428.075H125.142V429.192H122.742V429.37ZM120.698 437.901V434.448H122.107V436.759H128.519V437.901H120.698ZM124.761 431.211V430.081H126.817V426.666H128.227V435.185H126.817V431.211H124.761Z" fill="#333333"/>
<path d="M98.361 527.534L107.593 524.131H111.966L116.339 524.617L118.768 520.727V519.269C118.768 517.81 120.712 516.838 120.712 516.838L127.029 513.921L133.345 511.49L137.718 511.004L143.549 511.49L145.979 513.921L152.781 512.949L159.098 508.087L161.527 505.17L161.041 499.822L159.584 495.446L156.668 490.584L147.922 488.153L144.521 482.805C144.521 482.805 143.549 478.43 143.063 475.999C142.577 473.568 142.091 471.623 141.605 469.192C141.12 466.761 140.634 463.358 140.634 463.358L137.232 457.038L135.571 455.375L131.402 457.038L120.226 453.148L116.339 452.176L111.966 450.066L113.589 453.634V458.817L112.296 462.055L109.381 464.972C108.409 465.945 109.702 468.862 109.702 468.862L110.994 471.127L109.702 475.668L108.079 478.585C108.079 478.585 104.192 483.447 103.871 484.419C103.55 485.392 102.579 488.309 102.579 488.309L104.201 490.905V493.171L102.258 495.115L98.6914 498.033L93.1813 501.601L86.6995 508.728C86.6995 508.728 84.4353 511.966 83.4635 511.966C82.4917 511.966 82.4917 515.204 82.4917 515.204L84.756 517.149L87.6713 517.47H91.2378L89.9453 520.066L86.7092 521.69C86.7092 521.69 82.171 523.314 81.1992 522.983C80.2274 522.653 77.6328 521.36 77.6328 521.36L75.0381 524.928L76.0099 530.441L81.8406 534.982L84.3575 537.16L91.0726 532.396L98.361 527.534Z" fill="#F9F9F9" stroke="#DDDDDD" stroke-linejoin="round"/>
<path d="M116.723 487.408C116.71 489.516 117.821 491.623 119.681 492.423L118.843 493.553C117.522 492.943 116.558 491.731 116.024 490.233C115.498 491.845 114.507 493.166 113.117 493.819L112.254 492.639C114.165 491.813 115.282 489.624 115.288 487.408V485.58H116.723V487.408ZM120.506 496.143V484.653H121.928V496.143H120.506ZM128.834 492.562C131.367 492.562 132.801 493.172 132.808 494.34C132.801 495.521 131.367 496.124 128.834 496.13C126.27 496.124 124.835 495.521 124.835 494.34C124.835 493.172 126.27 492.562 128.834 492.562ZM123.616 491.953V490.874H134.077V491.953H123.616ZM124.137 486.621V485.555H128.136V484.526H129.545V485.555H133.506V486.621H124.137ZM125.025 488.64C125.025 487.554 126.403 486.977 128.834 486.977C131.291 486.977 132.649 487.554 132.655 488.64C132.649 489.719 131.291 490.284 128.834 490.277C126.403 490.284 125.025 489.719 125.025 488.64ZM126.282 494.34C126.282 494.854 127.126 495.102 128.834 495.089C130.522 495.102 131.379 494.854 131.386 494.34C131.379 493.845 130.522 493.584 128.834 493.578C127.126 493.584 126.282 493.845 126.282 494.34ZM126.536 488.64C126.536 489.09 127.317 489.306 128.834 489.312C130.376 489.306 131.138 489.09 131.145 488.64C131.138 488.164 130.376 487.929 128.834 487.929C127.317 487.929 126.536 488.164 126.536 488.64Z" fill="#333333"/>
<path d="M156.668 558.163C156.668 558.163 159.098 558.163 160.555 557.677C162.013 557.191 165.414 554.274 165.414 554.274C165.414 554.274 169.787 552.329 171.731 551.357C173.674 550.385 179.505 548.44 179.505 548.44L179.991 543.578L182 541.5L182.5 536L180.5 534.5L178.5 532.5L174.5 525.5L170.759 519.269V515L167.358 515.866L164.928 509.059L161.527 505.17L159.098 508.087L152.781 512.949L145.978 513.921L143.549 511.49L137.718 511.004L133.345 511.49L127.029 513.921L120.712 516.838C120.712 516.838 118.768 517.81 118.768 519.269V520.727L116.339 524.617L111.966 524.131H107.593L98.3609 527.534L91.0725 532.396L84.5 537.5L88.9637 541.147L99.3327 545.037L109.371 548.926L117.466 550.55L120.702 549.655H125.318C126.776 549.655 130.42 547.711 130.42 547.711L133.093 545.523H135.036L136.008 548.926C136.008 548.926 138.68 553.058 138.923 553.788C139.166 554.517 142.325 556.705 142.325 556.705L144.754 558.406L147.183 560.837L152.285 559.136L156.658 558.163H156.668Z" fill="#F9F9F9" stroke="#DDDDDD" stroke-linejoin="round"/>
<path d="M141.433 525.653V529.018H143.032V530.186H141.433V534.045H140.023V525.653H141.433ZM132.508 529.31C132.501 527.615 133.86 526.421 135.605 526.415C137.351 526.421 138.69 527.615 138.703 529.31C138.69 530.979 137.351 532.191 135.605 532.191C133.86 532.191 132.501 530.979 132.508 529.31ZM133.892 529.31C133.885 530.3 134.647 530.954 135.605 530.947C136.577 530.954 137.313 530.3 137.319 529.31C137.313 528.294 136.577 527.646 135.605 527.646C134.647 527.646 133.885 528.294 133.892 529.31ZM134.082 536.901V533.169H135.491V535.759H141.89V536.901H134.082ZM147.729 527.685C147.717 529.189 148.669 530.63 150.472 531.214L149.735 532.331C148.466 531.899 147.558 531.036 147.057 529.932C146.549 531.15 145.603 532.103 144.264 532.572L143.477 531.455C145.362 530.839 146.308 529.303 146.308 527.672V526.364H147.729V527.685ZM145.317 536.901V533.258H146.765V535.759H153.125V536.901H145.317ZM151.259 534.083V525.653H152.668V529.043H154.268V530.236H152.668V534.083H151.259Z" fill="#333333"/>
<path d="M196.978 551.357L195.52 556.219L191.147 556.705C191.147 556.705 189.69 556.219 188.718 557.677C187.746 559.136 184.345 560.594 184.345 560.594H179.972L179 564.97L182.401 569.346L186.774 569.832C186.774 569.832 190.661 572.749 190.661 574.207C190.661 575.666 194.549 580.528 194.549 580.528L198.436 583.931L208.639 585.876L212.527 586.362L217.871 587.82L223.216 586.848L228.075 582.472L230.991 578.097L235.364 573.721L241.68 572.263L245.082 567.887L246.539 565.942L244.11 562.539L245.082 558.65L248.483 555.246L251.398 551.843L247.511 548.926L242.652 546.981L240.223 543.578L238.279 536.771L232.448 534.827L229.533 529.479L228.075 524.131L223.702 517.324L221.516 515.778L218.843 520.241L215.928 526.075L212.527 528.506L207.182 529.479L202.323 531.423L198.436 532.882L198.922 535.799L196.006 544.55L194.762 544.861L196.492 546.981L196.978 551.357Z" fill="#F9F9F9" stroke="#DDDDDD" stroke-linejoin="round"/>
<path d="M210.36 549.605C210.354 551.046 211.973 552.513 214.423 552.83L213.864 553.973C211.916 553.681 210.367 552.722 209.618 551.427C208.869 552.722 207.326 553.681 205.396 553.973L204.838 552.83C207.263 552.513 208.875 551.059 208.875 549.605V549.021H210.36V549.605ZM204.381 556.131V554.963H214.842V556.131H210.284V560.13H208.888V556.131H204.381ZM225.239 548.666V557.35H223.817V556.347H221.57V555.356H223.817V548.666H225.239ZM215.565 553.82C217.679 553.808 220.529 553.789 222.967 553.478L223.043 554.493C222.097 554.652 221.12 554.753 220.148 554.823V557.032H218.739V554.899C217.667 554.944 216.645 554.95 215.743 554.95L215.565 553.82ZM216.441 551.116C216.441 549.904 217.609 549.079 219.311 549.085C220.98 549.079 222.154 549.904 222.167 551.116C222.154 552.348 220.98 553.128 219.311 553.135C217.609 553.128 216.441 552.348 216.441 551.116ZM217.089 559.901V556.512H218.498V558.759H225.506V559.901H217.089ZM217.774 551.116C217.774 551.738 218.39 552.1 219.311 552.106C220.187 552.1 220.815 551.738 220.821 551.116C220.815 550.494 220.187 550.12 219.311 550.126C218.39 550.12 217.774 550.494 217.774 551.116Z" fill="#333333"/>
<path d="M401.072 628.66L400.1 624.77L401.072 618.936C401.072 618.936 400.1 616.505 398.642 614.074C397.185 611.643 396.213 613.588 396.213 613.588L392.812 614.56L386.981 613.588L384.066 608.726L380.664 603.864H376.291C376.291 603.864 370.461 601.433 369.489 599.975C368.517 598.516 365.116 595.599 365.116 594.141C365.116 592.682 364.63 590.738 364.144 588.793C363.658 586.848 364.144 583.931 364.63 581.986C365.116 580.042 364.63 575.666 364.63 575.666C364.63 575.666 364.144 568.859 364.63 567.401C365.116 565.942 364.63 564.484 364.63 564.484C364.63 564.484 361.229 563.511 358.799 561.567C356.37 559.622 353.94 563.025 353.94 563.025L348.595 564.484L345.194 563.025H341.307L338.877 559.136L339.363 555.732V548.926L337.906 545.523V541.633L340.821 536.771V532.396L339.363 528.02L341.307 525.103L339.849 522.186H334.019L332.561 519.269C332.561 519.269 324.787 515.866 323.329 515.379C321.871 514.893 318.956 515.379 318.956 515.379H315.069L312.639 517.324L311.182 521.214L309.724 526.075L306.323 528.993L302.921 528.506L302.435 523.645L297.576 521.214L291.26 521.7L286.401 523.645L276.683 524.617L273.603 523.217L272.796 525.103C272.796 525.103 267.937 527.534 265.508 527.048C263.078 526.562 262.106 527.048 261.134 525.589C260.163 524.131 256.276 520.241 254.818 519.755C253.36 519.269 246.072 515.866 246.072 515.866L242.671 512.949L236.84 511.976L233.439 508.087L230.523 507.601L225.781 506.016L224.692 509.545L221.777 515.379L221.534 515.778L223.721 517.324L228.094 524.131L229.551 529.479L232.467 534.827L238.298 536.771L240.241 543.578L242.671 546.981L247.529 548.926L251.417 551.843L248.501 555.246L245.1 558.65L244.128 562.539L246.558 565.942L245.1 567.887L241.699 572.263L241.087 572.409L242.671 576.638V582.472L246.558 587.82L251.417 591.224L260.649 592.682C260.649 592.682 269.395 593.655 270.852 593.655C272.31 593.655 279.113 592.682 279.113 592.682L282.514 596.572L283.971 600.947V605.323L285.915 609.699L285.429 614.074L282.028 617.477L277.655 619.908C277.655 619.908 275.225 619.422 274.74 620.881C274.254 622.339 272.31 625.743 272.31 625.743L269.395 630.118L268.909 634.008L269.395 638.383L265.993 643.245L264.05 647.621C264.05 647.621 266.479 650.538 266.965 652.482C267.451 654.427 268.423 659.775 268.423 659.775C268.423 659.775 269.997 662.138 270.308 664.034L277.655 663.665L289.316 666.096L296.119 665.609L300.978 664.637L304.865 660.261L307.294 656.858C307.294 656.858 309.724 652.482 311.182 652.482C312.639 652.482 319.442 650.052 319.442 650.052L326.73 645.676L328.188 640.814L327.702 632.063L330.617 628.66L334.504 630.118L335.962 635.952L338.392 639.842L342.765 640.814C342.765 640.814 345.194 644.704 345.68 646.162C346.166 647.621 351.511 652.969 351.511 652.969L356.37 653.941L359.771 649.565L365.602 651.024L369.489 655.4L373.862 657.344L381.636 655.886L387.467 656.372L392.326 657.83C392.326 657.83 393.298 661.234 394.755 661.234C396.213 661.234 400.586 662.206 400.586 662.206L405.445 655.886L404.959 650.052L402.529 645.676L403.501 641.787L404.959 638.383L406.397 633.103L403.987 630.118L401.072 628.66Z" fill="#F9F9F9" stroke="#DDDDDD" stroke-linejoin="round"/>
<path d="M308.842 583.176V584.306H298.381V583.176H300.818V581.722C299.949 581.354 299.46 580.776 299.46 580.027C299.46 578.65 301.066 577.844 303.599 577.844C306.125 577.844 307.731 578.65 307.737 580.027C307.731 580.783 307.236 581.36 306.366 581.722V583.176H308.842ZM299.6 587.048C299.6 585.728 301.091 584.991 303.599 585.004C306.068 584.991 307.566 585.728 307.572 587.048C307.566 588.381 306.068 589.104 303.599 589.104C301.091 589.104 299.6 588.381 299.6 587.048ZM300.933 580.027C300.92 580.726 301.904 581.1 303.599 581.094C305.287 581.1 306.277 580.726 306.277 580.027C306.277 579.323 305.287 578.929 303.599 578.936C301.904 578.929 300.92 579.323 300.933 580.027ZM301.034 587.048C301.028 587.695 301.929 588.044 303.599 588.038C305.243 588.044 306.15 587.695 306.163 587.048C306.15 586.407 305.243 586.077 303.599 586.07C301.929 586.077 301.028 586.407 301.034 587.048ZM302.24 583.176H304.957V582.084C304.544 582.141 304.087 582.173 303.599 582.173C303.11 582.173 302.653 582.141 302.24 582.084V583.176ZM319.176 577.666V585.956H317.754V577.666H319.176ZM309.819 581.284C309.819 579.615 311.171 578.421 312.917 578.415C314.663 578.421 316.008 579.615 316.002 581.284C316.008 582.979 314.663 584.166 312.917 584.166C311.171 584.166 309.819 582.979 309.819 581.284ZM311.203 581.284C311.197 582.3 311.933 582.935 312.917 582.935C313.875 582.935 314.618 582.3 314.618 581.284C314.618 580.294 313.875 579.646 312.917 579.646C311.933 579.646 311.197 580.294 311.203 581.284ZM311.584 588.901V585.118H313.006V587.759H319.493V588.901H311.584Z" fill="#333333"/>
<path d="M498.737 632.063V629.632L497.765 621.532L495.171 622.184L491.283 620.89L490.632 618.294L487.396 615.698L486.104 612.46L481.565 609.864L478.971 608.571H474.433L473.781 613.753L470.545 615.698L462.12 616.35L453.695 617.001L448.515 615.056L447.864 608.571C447.864 608.571 449.156 605.974 450.459 604.03C451.761 602.085 451.751 600.792 451.751 600.792V579.4L454.987 576.162V569.034L453.044 563.2V556.715L453.695 550.88L457.582 547.642V539.864L453.695 537.267L451.1 532.726L450.449 529.488L445.911 524.948L441.372 524.296L434.249 521.058L433.598 517.82L427.767 513.279H423.229L416.747 513.931L413.511 510.693L413.472 510.537L405.737 520.416L397.312 528.847L390.83 533.388L387.594 535.332L382.414 536.626L379.178 537.277L374.64 542.46L373.347 547.642L372.055 552.183H367.517L368.809 556.073V560.614L364.601 564.503C364.601 564.503 365.087 565.962 364.601 567.42C364.115 568.879 364.601 575.685 364.601 575.685C364.601 575.685 365.087 580.061 364.601 582.006C364.115 583.95 363.629 586.868 364.115 588.812C364.601 590.757 365.087 592.702 365.087 594.16C365.087 595.619 368.488 598.536 369.46 599.994C370.432 601.453 376.263 603.884 376.263 603.884H380.636L384.037 608.746L386.952 613.607L392.783 614.58L396.184 613.607C396.184 613.607 397.156 611.663 398.614 614.094C400.071 616.525 401.043 618.955 401.043 618.955L400.071 624.79L401.043 628.679L403.959 630.138L406.369 633.123L406.388 633.055L410.275 632.569C410.275 632.569 415.134 633.055 415.62 634.513C416.106 635.972 421.451 639.861 421.451 639.861L429.225 642.292L432.626 644.237C432.626 644.237 436.028 647.154 437.485 649.585C438.943 652.016 440.886 653.96 440.886 655.419C440.886 656.878 444.288 658.336 444.288 658.336C444.288 658.336 444.774 661.253 444.774 662.712V667.087L444.288 669.518L441.858 676.811C441.858 676.811 441.372 680.214 438.943 681.673C437.689 682.422 435.396 684.736 433.481 686.787L436.513 688.479L440.886 687.993L445.745 685.562L448.175 684.59L453.52 686.048L458.865 687.507L464.695 687.993H467.611L469.554 682.645L469.068 677.783L471.012 674.38H480.73L483.645 673.894L486.075 672.922L487.046 668.06L488.99 665.629L490.933 663.684L495.792 658.822L498.222 654.447L498.708 649.585C498.708 649.585 499.194 645.695 499.194 644.237C499.194 642.778 499.68 641.32 499.68 641.32L500.165 634.999L498.708 632.082L498.737 632.063Z" fill="#F9F9F9" stroke="#DDDDDD" stroke-linejoin="round"/>
<path d="M418.928 586.653V598.143H417.506V586.653H418.928ZM409.749 591.541C409.743 589.065 411.006 587.491 412.745 587.491C414.465 587.491 415.735 589.065 415.741 591.541C415.735 594.036 414.465 595.604 412.745 595.604C411.006 595.604 409.743 594.036 409.749 591.541ZM411.107 591.541C411.107 593.306 411.774 594.328 412.745 594.334C413.71 594.328 414.37 593.306 414.37 591.541C414.37 589.789 413.71 588.761 412.745 588.761C411.774 588.761 411.107 589.789 411.107 591.541ZM424.742 589.37C424.736 590.735 425.694 592.062 427.51 592.62L426.824 593.725C425.523 593.337 424.577 592.506 424.057 591.452C423.549 592.588 422.603 593.483 421.264 593.915L420.578 592.811C422.387 592.246 423.333 590.843 423.333 589.37V589.192H420.934V588.075H423.333V586.729H424.755V588.075H427.142V589.192H424.742V589.37ZM422.698 597.901V594.448H424.107V596.759H430.519V597.901H422.698ZM426.761 591.211V590.081H428.817V586.666H430.227V595.185H428.817V591.211H426.761Z" fill="#333333"/>
<path d="M272.311 625.743C272.311 625.743 274.254 622.339 274.74 620.881C275.226 619.422 277.655 619.908 277.655 619.908L282.028 617.477L285.43 614.074L285.916 609.699L283.972 605.323V600.947L282.514 596.572L279.113 592.682C279.113 592.682 272.311 593.655 270.853 593.655C269.395 593.655 260.649 592.682 260.649 592.682L251.417 591.224L246.558 587.82L242.671 582.472V576.638L241.087 572.409L235.383 573.721L231.01 578.097L228.094 582.472L223.235 586.848L217.891 587.82L212.546 586.362L208.659 585.876L198.455 583.931L194.568 580.528C194.568 580.528 190.68 575.666 190.68 574.207C190.68 572.749 186.793 569.832 186.793 569.832L182.42 569.346L179.019 564.97L179.991 560.594H184.364C184.364 560.594 187.765 559.136 188.737 557.677C189.709 556.219 191.166 556.705 191.166 556.705L195.539 556.219L196.997 551.357L196.511 546.981L194.781 544.861L190.195 546.009L184.364 543.578L180.282 543.286L179.991 543.578L179.505 548.44C179.505 548.44 173.674 550.384 171.731 551.357C169.787 552.329 165.414 554.274 165.414 554.274C165.414 554.274 162.013 557.191 160.555 557.677C159.097 558.163 156.668 558.163 156.668 558.163L152.295 559.136L147.193 560.837L148.651 562.296C148.651 562.296 148.165 565.942 147.436 565.942C146.707 565.942 145.006 566.915 145.006 566.915L143.063 565.213L140.148 562.782L138.69 561.08L136.746 560.837L133.345 560.351V558.406L130.916 555.732L128.972 556.219L126.785 559.865L126.057 563.025L124.356 564.241L121.441 566.915C121.441 566.915 119.497 569.346 119.497 570.075C119.497 570.804 118.039 574.207 118.039 574.207L117.068 576.395L116.339 579.798L116.096 582.959C116.096 582.959 115.367 585.146 115.367 585.876C115.367 586.605 113.666 584.417 113.666 583.688C113.666 582.959 113.18 580.528 113.18 580.528L112.938 576.638L112.209 574.937L109.05 573.478L106.135 572.506C105.406 572.263 103.949 571.29 103.949 571.29L101.762 570.804L97.8748 571.29L95.4454 570.804C95.4454 570.804 91.0723 570.804 87.1852 569.832C83.298 568.859 81.3545 569.832 81.3545 569.832C81.3545 569.832 77.4673 570.804 73.0943 571.776L71.1507 573.721C69.2071 575.666 68.7212 576.638 67.7494 578.097C66.7777 579.555 65.8059 578.583 63.3764 580.042C60.9469 581.5 64.8341 584.903 64.8341 584.903C64.8341 584.903 67.2636 589.279 68.7212 590.251C70.1789 591.224 66.7777 594.627 66.7777 594.627V599.489L69.2071 601.92C69.2071 601.92 67.2636 605.809 65.8059 607.268C64.3482 608.726 63.8623 608.726 60.9469 611.157C58.0316 613.588 60.9469 615.047 60.9469 616.505C60.9469 617.964 60.461 622.825 60.461 622.825L59.4893 625.256L60.9469 631.091H63.3764C63.3764 631.091 65.8059 629.146 67.7494 625.743C69.693 622.339 70.1789 625.256 72.6084 625.256C75.0378 625.256 73.0943 630.118 73.0943 630.118L71.1507 634.008L70.1789 638.869C70.1789 638.869 70.1789 641.3 70.6648 643.731C71.1507 646.162 71.6366 647.621 71.6366 647.621L78.4391 646.648L83.7839 644.217L89.6146 640.328C91.0723 639.356 92.0441 638.383 93.9877 636.438C95.9313 634.494 95.4454 634.008 96.903 631.577C98.3607 629.146 100.304 627.201 100.79 625.743C101.276 624.284 105.649 624.77 105.649 624.77C105.649 624.77 108.564 624.77 110.994 623.798C113.423 622.825 113.909 619.908 113.909 619.908L120.226 620.395C120.226 620.395 119.74 622.825 119.254 624.284C118.768 625.743 117.796 627.687 117.796 627.687L119.254 629.632C119.254 629.632 124.113 630.604 125.571 631.091C127.028 631.577 127.514 632.549 127.514 632.549V634.98L122.17 639.842H115.367L112.452 641.3C112.452 641.3 110.508 643.731 107.593 646.162C104.677 648.593 105.163 650.052 105.163 651.51C105.163 652.969 107.107 653.455 107.593 654.913C108.079 656.372 108.564 658.803 109.05 660.748C109.536 662.692 110.022 666.096 110.022 666.096L108.564 673.874L106.621 682.139L103.706 685.057L99.8184 688.46L99.3325 696.239L105.649 698.183H112.938L117.796 700.614L123.141 703.045L127.028 704.99H137.232L139.176 704.504L144.035 703.531L146.95 701.587L152.781 696.239L153.753 690.405L158.612 685.543L163.47 679.709L166.872 676.305L171.731 675.819L176.104 676.305L181.449 677.764C181.449 677.764 185.822 679.222 187.279 679.222C188.737 679.222 194.082 678.25 194.082 678.25C194.082 678.25 196.997 675.333 198.455 675.333C199.912 675.333 206.229 674.361 206.229 674.361L209.144 672.902C209.144 672.902 210.116 669.499 210.116 668.04V661.72C210.116 661.72 213.517 657.344 213.517 655.886C213.517 654.427 214.975 648.107 214.975 648.107L217.891 642.759L224.207 638.383L225.587 638.15L226.151 634.494L226.637 628.66L223.721 624.284L218.376 618.936L213.517 615.533V610.671L218.376 607.268L223.721 603.378L228.58 602.892L235.869 603.378L241.213 604.837L243.157 607.754L246.072 612.616V617.477C246.072 617.477 249.474 619.908 250.445 621.367C251.417 622.825 254.818 625.256 254.818 625.256C254.818 625.256 257.734 625.743 258.22 627.201L260.649 634.494L268.909 634.008L269.395 630.118L272.311 625.743Z" fill="#F9F9F9" stroke="#DDDDDD" stroke-linejoin="round"/>
<path d="M170.458 614.653V619.389H172.07V620.569H170.458V626.13H169.036V614.653H170.458ZM161.241 622.943C162.111 622.943 163.12 622.943 164.174 622.918V621.845C162.923 621.629 162.111 620.849 162.117 619.77C162.111 618.475 163.247 617.618 164.897 617.611C166.529 617.618 167.678 618.475 167.69 619.77C167.678 620.855 166.846 621.636 165.596 621.845V622.867C166.561 622.816 167.525 622.74 168.427 622.613L168.516 623.642C166.053 624.092 163.399 624.111 161.444 624.111L161.241 622.943ZM161.457 617.091V615.974H164.174V614.704H165.596V615.974H168.3V617.091H161.457ZM163.45 619.77C163.444 620.43 164.028 620.817 164.897 620.811C165.754 620.817 166.332 620.43 166.332 619.77C166.332 619.103 165.754 618.697 164.897 618.69C164.028 618.697 163.444 619.103 163.45 619.77ZM176.818 616.304C176.812 617.865 177.726 619.293 179.522 619.858L178.761 620.963C177.51 620.519 176.634 619.681 176.146 618.595C175.638 619.846 174.679 620.83 173.289 621.318L172.54 620.176C174.438 619.554 175.39 618.024 175.396 616.367V615.275H176.818V616.304ZM174.444 623.921C174.432 622.524 175.923 621.706 178.342 621.712C180.773 621.706 182.258 622.524 182.265 623.921C182.258 625.317 180.773 626.117 178.342 626.117C175.923 626.117 174.432 625.317 174.444 623.921ZM175.841 623.921C175.834 624.619 176.749 625.006 178.342 625.013C179.948 625.006 180.855 624.619 180.855 623.921C180.855 623.197 179.948 622.81 178.342 622.804C176.749 622.81 175.834 623.197 175.841 623.921ZM178.532 618.03V616.875H180.817V614.653H182.227V621.407H180.817V618.03H178.532Z" fill="#333333"/>
<path d="M254.819 625.256C254.819 625.256 251.417 622.826 250.445 621.367C249.474 619.908 246.072 617.478 246.072 617.478V612.616L243.157 607.754L241.214 604.837L235.869 603.378L228.58 602.892L223.721 603.378L218.377 607.268L213.518 610.671V615.533L218.377 618.936L223.721 624.284L226.637 628.66L226.151 634.494L225.587 638.15L227.123 637.897L230.524 640.328L233.925 643.245L237.326 643.731L242.185 642.759C242.185 642.759 243.643 643.731 245.101 643.731H250.445L251.903 641.787L254.333 639.356L258.706 635.466L260.649 634.494L258.22 627.201C257.734 625.743 254.819 625.256 254.819 625.256Z" fill="#F9F9F9" stroke="#DDDDDD" stroke-linejoin="round"/>
<path d="M235.599 626.301C238.062 626.307 239.883 627.532 239.877 629.398C239.883 631.119 238.404 632.268 236.297 632.477V634.578H240.867V635.733H230.381V634.578H234.9V632.477C232.818 632.268 231.339 631.119 231.346 629.398C231.339 627.532 233.155 626.307 235.599 626.301ZM232.729 629.398C232.723 630.636 233.923 631.379 235.599 631.379C237.3 631.379 238.493 630.636 238.493 629.398C238.493 628.199 237.3 627.437 235.599 627.443C233.923 627.437 232.723 628.199 232.729 629.398ZM245.729 627.685C245.717 629.189 246.669 630.63 248.472 631.214L247.735 632.331C246.466 631.899 245.558 631.036 245.057 629.932C244.549 631.15 243.603 632.103 242.264 632.572L241.477 631.455C243.362 630.839 244.308 629.303 244.308 627.672V626.364H245.729V627.685ZM243.317 636.901V633.258H244.765V635.759H251.125V636.901H243.317ZM249.259 634.083V625.653H250.668V629.043H252.268V630.236H250.668V634.083H249.259Z" fill="#333333"/>
<path d="M273.282 726.868L275.711 720.548L276.683 718.117L281.056 717.145L282.028 713.741L280.57 709.366L278.141 705.962L279.599 703.531V700.614L276.683 697.697H273.768L267.937 698.67H262.106V696.725C262.106 694.78 264.05 694.78 265.508 692.349C266.965 689.918 268.909 687.974 268.909 687.974L271.338 686.029V682.139L268.423 681.167L263.564 680.681L261.621 675.819L263.078 673.388H266.965C266.965 673.388 269.395 671.443 270.367 669.985C271.338 668.526 270.367 666.582 270.367 664.637C270.367 662.692 268.423 659.775 268.423 659.775C268.423 659.775 267.451 654.427 266.965 652.482C266.479 650.538 264.05 647.621 264.05 647.621L265.994 643.245L269.395 638.383L268.909 634.008L260.649 634.494L258.705 635.466L254.332 639.356L251.903 641.786L250.445 643.731H245.1C243.643 643.731 242.185 642.759 242.185 642.759L237.326 643.731L233.925 643.245L230.523 640.328L227.122 637.897L224.207 638.383L217.89 642.759L214.975 648.107C214.975 648.107 213.517 654.427 213.517 655.886C213.517 657.344 210.116 661.72 210.116 661.72V668.04C210.116 669.499 209.144 672.902 209.144 672.902L206.229 674.361C206.229 674.361 199.912 675.333 198.454 675.333C196.997 675.333 194.081 678.25 194.081 678.25C194.081 678.25 188.737 679.222 187.279 679.222C185.821 679.222 181.448 677.764 181.448 677.764L176.103 676.305L171.73 675.819L166.871 676.305L163.47 679.709L158.611 685.543L153.752 690.405L152.78 696.239L146.95 701.587L148.893 700.128H150.837L149.379 704.504L143.548 709.366L132.373 709.852L124.599 711.797C124.599 711.797 122.655 712.283 121.683 714.227C120.711 716.172 120.226 718.117 120.226 718.117L121.683 722.006H126.542L133.831 722.979L137.718 724.437L143.063 726.868L144.52 730.271L146.464 736.106C146.464 736.106 148.407 739.995 150.351 743.398L158.611 746.802L162.012 752.636L168.329 756.525C168.329 756.525 169.787 760.415 170.758 761.873C171.73 763.332 175.132 762.846 175.132 762.846C175.132 762.846 181.448 758.47 182.906 757.984C184.364 757.498 186.793 756.039 186.793 756.039L191.166 756.525H195.053L198.94 755.067L206.229 750.205L210.116 749.719C210.116 749.719 214.003 749.719 216.918 750.205C219.834 750.691 222.263 752.15 222.263 752.15L227.608 753.122C227.608 753.122 231.981 752.15 233.925 751.177C235.868 750.205 236.354 749.232 236.354 749.232H248.987L254.332 746.315L257.733 746.802L261.621 745.343V742.912C261.621 742.912 260.163 738.05 261.135 735.133H265.994L268.423 735.619H269.589L269.881 733.188L273.282 726.868Z" fill="#F9F9F9" stroke="#DDDDDD" stroke-linejoin="round"/>
<path d="M208.792 699.453V700.596H207.776V703.852C208.195 703.82 208.614 703.782 209.008 703.731V702.703H210.582V701.713H209.008V700.583H210.582V698.653H211.991V705.687H210.582V703.833H209.04L209.097 704.772C206.907 705.134 204.374 705.172 202.546 705.179L202.394 704.011C202.793 704.011 203.231 704.011 203.688 704.004V700.596H202.686V699.453H208.792ZM204.209 708.01C204.196 706.658 205.675 705.89 208.106 705.89C210.557 705.89 212.023 706.658 212.029 708.01C212.023 709.33 210.557 710.117 208.106 710.117C205.675 710.117 204.196 709.33 204.209 708.01ZM205.06 703.985C205.504 703.973 205.961 703.954 206.418 703.935V700.596H205.06V703.985ZM205.605 708.01C205.599 708.676 206.5 709.025 208.106 709.025C209.719 709.025 210.62 708.676 210.62 708.01C210.62 707.331 209.719 706.969 208.106 706.969C206.5 706.969 205.599 707.331 205.605 708.01ZM218.555 699.453V700.583H215.406V701.7H218.44V702.779H215.406V703.985C216.803 703.973 217.78 703.916 218.897 703.706L219.05 704.849C217.698 705.103 216.593 705.147 214.81 705.141H214.048V699.453H218.555ZM215.571 707.299V706.156H223.43V710.13H222.021V707.299H215.571ZM219.57 705.56V698.882H220.891V701.535H222.084V698.666H223.43V705.648H222.084V702.665H220.891V705.56H219.57Z" fill="#333333"/>
<path d="M438.972 681.653C441.402 680.195 441.888 676.792 441.888 676.792L444.317 669.499L444.803 667.068V662.692C444.803 661.234 444.317 658.317 444.317 658.317C444.317 658.317 440.916 656.858 440.916 655.4C440.916 653.941 438.972 651.996 437.515 649.565C436.057 647.135 432.656 644.217 432.656 644.217L429.254 642.273L421.48 639.842C421.48 639.842 416.135 635.952 415.649 634.494C415.163 633.035 410.304 632.549 410.304 632.549L406.417 633.035L404.96 638.383L403.502 641.787L402.53 645.676L404.96 650.052L405.446 655.886L400.587 662.206C400.587 662.206 396.214 661.234 394.756 661.234C393.298 661.234 392.326 657.831 392.326 657.831L387.467 656.372L381.637 655.886L373.862 657.344L369.489 655.4L365.602 651.024L359.772 649.565L356.37 653.941L351.511 652.969C351.511 652.969 346.167 647.621 345.681 646.162C345.195 644.704 342.765 640.814 342.765 640.814L338.392 639.842L335.963 635.952L334.505 630.118L330.618 628.66L327.703 632.063L328.188 640.814L326.731 645.676L319.442 650.052C319.442 650.052 312.64 652.483 311.182 652.483C309.725 652.483 307.295 656.858 307.295 656.858L304.866 660.261L300.978 664.637L296.12 665.609L289.317 666.096L277.656 663.665L270.309 664.034C270.348 664.238 270.367 664.443 270.367 664.637C270.367 666.582 271.339 668.527 270.367 669.985C269.395 671.444 266.966 673.388 266.966 673.388H263.079L261.621 675.819L263.565 680.681L268.424 681.167L271.339 682.14V686.029L268.909 687.974C268.909 687.974 266.966 689.918 265.508 692.349C264.051 694.78 262.107 694.78 262.107 696.725V698.67H267.938L273.768 697.697H276.684L279.599 700.614V703.532L278.141 705.962L280.571 709.366L282.029 713.741L281.057 717.145L276.684 718.117L275.712 720.548L273.283 726.868L269.881 733.189L269.59 735.619H270.367C270.367 735.619 273.283 734.647 274.74 733.675C276.198 732.702 277.656 734.161 279.599 734.647C281.543 735.133 283.486 737.078 283.486 737.078C283.486 737.078 288.345 737.564 289.803 738.05C291.261 738.537 291.746 739.509 291.746 739.509L298.549 742.426L302.922 744.371C302.922 744.371 306.323 746.802 307.295 748.26C308.267 749.719 308.267 753.122 308.267 753.122L310.696 755.067L315.069 757.498L320.9 759.929L324.301 760.415L329.16 761.387L334.505 764.304L337.906 769.166L339.364 772.569L344.223 775C344.223 775 347.624 771.111 348.11 768.68C348.596 766.249 348.11 763.332 348.11 763.332V756.525L349.082 754.581C349.082 754.581 351.997 751.663 355.884 751.663C359.772 751.663 361.229 748.746 361.229 748.746L368.518 743.885L372.891 742.426L379.207 743.398L384.552 741.454L387.953 736.592L390.383 735.619L392.812 732.702L393.784 726.382L389.411 721.52L389.897 716.658L395.242 715.2L397.671 714.714C397.671 714.714 402.044 712.769 403.502 712.283C404.96 711.797 407.389 711.31 407.389 711.31C407.389 711.31 411.762 708.88 414.192 707.907C416.621 706.935 417.593 704.504 417.593 704.504L419.536 700.128L420.508 695.753L420.022 691.377L422.938 687.488L426.339 685.543L432.17 686.029L433.511 686.768C435.435 684.707 437.719 682.402 438.972 681.653Z" fill="#F9F9F9" stroke="#DDDDDD" stroke-linejoin="round"/>
<path d="M342.433 693.653V697.018H344.032V698.186H342.433V702.045H341.023V693.653H342.433ZM333.508 697.31C333.501 695.615 334.86 694.421 336.605 694.415C338.351 694.421 339.69 695.615 339.703 697.31C339.69 698.979 338.351 700.191 336.605 700.191C334.86 700.191 333.501 698.979 333.508 697.31ZM334.892 697.31C334.885 698.3 335.647 698.954 336.605 698.947C337.577 698.954 338.313 698.3 338.319 697.31C338.313 696.294 337.577 695.646 336.605 695.646C335.647 695.646 334.885 696.294 334.892 697.31ZM335.082 704.901V701.169H336.491V703.759H342.89V704.901H335.082ZM348.818 695.304C348.812 696.865 349.726 698.293 351.522 698.858L350.761 699.963C349.51 699.519 348.634 698.681 348.146 697.595C347.638 698.846 346.679 699.83 345.289 700.318L344.54 699.176C346.438 698.554 347.39 697.024 347.396 695.367V694.275H348.818V695.304ZM346.444 702.921C346.432 701.524 347.923 700.706 350.342 700.712C352.773 700.706 354.258 701.524 354.265 702.921C354.258 704.317 352.773 705.117 350.342 705.117C347.923 705.117 346.432 704.317 346.444 702.921ZM347.841 702.921C347.834 703.619 348.749 704.006 350.342 704.013C351.948 704.006 352.855 703.619 352.855 702.921C352.855 702.197 351.948 701.81 350.342 701.804C348.749 701.81 347.834 702.197 347.841 702.921ZM350.532 697.03V695.875H352.817V693.653H354.227V700.407H352.817V697.03H350.532Z" fill="#333333"/>
</g>
<defs>
<clipPath id="clip0_554_247">
<rect width="594" height="775" fill="white"/>
</clipPath>
</defs>
</svg>
